<?xml version="1.0" encoding="UTF-8"?>
<!-- Generated by jsxcad -->
<!DOCTYPE svg PUBLIC "-//W3C//DTD SVG 1.1 Tiny//EN" "http://www.w3.org/Graphics/SVG/1.1/DTD/svg11-tiny.dtd">
<svg baseProfile="tiny" height="25.50000000000002mm" width="32.25000000000003mm" viewBox="-8.326672684688675e-17 -0.7500000000000054 32.25000000000003 25.50000000000002" version="1.1" stroke="black" stroke-width=".1" fill="none" xmlns="http://www.w3.org/2000/svg">
<path fill="#4682b4" stroke="#4682b4" d="M0.00425927171386585 0.75 L0.00425927171386585 0 L-1.080192734674341e-15 0 L-1.080192734674341e-15 0.75 z"/>
<path fill="#4682b4" stroke="#4682b4" d="M0.016746824526942757 0.75 L0.016746824526942757 0 L0.004259271713862667 0 L0.004259271713862667 0.75 z"/>
<path fill="#4682b4" stroke="#4682b4" d="M0.036611652351678306 0.75 L0.036611652351678306 0 L0.0167468245269397 0 L0.0167468245269397 0.75 z"/>
<path fill="#4682b4" stroke="#4682b4" d="M9.786611652351677 0.75 L9.786611652351677 0 L0.03661165235168075 0 L0.03661165235168075 0.75 z"/>
<path fill="#4682b4" stroke="#4682b4" d="M9.812499999999998 0.75 L9.812499999999998 0 L9.786611652351679 0 L9.786611652351679 0.75 z"/>
<path fill="#4682b4" stroke="#4682b4" d="M9.842647619362182 0.75 L9.842647619362182 0 L9.812499999999998 0 L9.812499999999998 0.75 z"/>
<path fill="#4682b4" stroke="#4682b4" d="M9.874999999999998 0.75 L9.874999999999998 0 L9.842647619362182 0 L9.842647619362182 0.75 z"/>
<path fill="#4682b4" stroke="#4682b4" d="M23.125 0.7499999999999999 L23.125 0 L9.875 0 L9.875 0.7499999999999999 z"/>
<path fill="#4682b4" stroke="#4682b4" d="M23.15735238063781 0.75 L23.15735238063781 0 L23.124999999999996 0 L23.124999999999996 0.75 z"/>
<path fill="#4682b4" stroke="#4682b4" d="M23.187499999999996 0.75 L23.187499999999996 0 L23.157352380637807 0 L23.157352380637807 0.75 z"/>
<path fill="#4682b4" stroke="#4682b4" d="M23.213388347648316 0.75 L23.213388347648316 0 L23.187499999999996 0 L23.187499999999996 0.75 z"/>
<path fill="#4682b4" stroke="#4682b4" d="M23.23325317547306 0.75 L23.23325317547306 0 L23.213388347648323 0 L23.213388347648323 0.75 z"/>
<path fill="#4682b4" stroke="#4682b4" d="M23.245740728286133 0.75 L23.245740728286133 0 L23.233253175473056 0 L23.233253175473056 0.75 z"/>
<path fill="#4682b4" stroke="#4682b4" d="M23.25 0.75 L23.25 0 L23.245740728286133 0 L23.245740728286133 0.75 z"/>
<path fill="#4682b4" stroke="#4682b4" d="M23.25 0.75 L23.25 0 L23.25 0 L23.25 0.75 z"/>
<path fill="#4682b4" stroke="#4682b4" d="M23.24574072828613 0.75 L23.24574072828613 0 L23.249999999999996 0 L23.249999999999996 0.75 z"/>
<path fill="#4682b4" stroke="#4682b4" d="M23.233253175473052 0.75 L23.233253175473052 0 L23.24574072828613 0 L23.24574072828613 0.75 z"/>
<path fill="#4682b4" stroke="#4682b4" d="M23.213388347648316 0.75 L23.213388347648316 0 L23.23325317547305 0 L23.23325317547305 0.75 z"/>
<path fill="#4682b4" stroke="#4682b4" d="M23.187499999999996 0.75 L23.187499999999996 0 L23.213388347648316 0 L23.213388347648316 0.75 z"/>
<path fill="#4682b4" stroke="#4682b4" d="M17.687499999999996 0.75 L17.687499999999996 0 L23.187499999999996 0 L23.187499999999996 0.75 z"/>
<path fill="#4682b4" stroke="#4682b4" d="M17.65735238063781 0.75 L17.65735238063781 0 L17.687499999999996 0 L17.687499999999996 0.75 z"/>
<path fill="#4682b4" stroke="#4682b4" d="M17.624999999999996 0.75 L17.624999999999996 0 L17.65735238063781 0 L17.65735238063781 0.75 z"/>
<path fill="#4682b4" stroke="#4682b4" d="M0.12500000000000006 0.75 L0.12500000000000006 0 L17.624999999999996 0 L17.624999999999996 0.75 z"/>
<path fill="#4682b4" stroke="#4682b4" d="M0.09264761936218496 0.75 L0.09264761936218496 0 L0.12500000000000006 0 L0.12500000000000006 0.75 z"/>
<path fill="#4682b4" stroke="#4682b4" d="M0.06250000000000006 0.75 L0.06250000000000006 0 L0.09264761936218495 0 L0.09264761936218495 0.75 z"/>
<path fill="#4682b4" stroke="#4682b4" d="M0.0366116523516816 0.75 L0.0366116523516816 0 L0.06250000000000006 0 L0.06250000000000006 0.75 z"/>
<path fill="#4682b4" stroke="#4682b4" d="M0.01674682452694693 0.75 L0.01674682452694693 0 L0.036611652351685606 0 L0.036611652351685606 0.75 z"/>
<path fill="#4682b4" stroke="#4682b4" d="M0.004259271713868383 0.75 L0.004259271713868383 0 L0.016746824526948517 0 L0.016746824526948517 0.75 z"/>
<path fill="#4682b4" stroke="#4682b4" d="M1.0801927346743482e-15 0.75 L1.0801927346743482e-15 0 L0.004259271713866586 0 L0.004259271713866586 0.75 z"/>
<path fill="#4682b4" stroke="#4682b4" d="M0.004259271713866447 0.75 L0 0.75 L0.004259271713866475 0.75 L0.01674682452694519 0.75 L0.03661165235168161 0.75 L0.06250000000000007 0.75 L0.09264761936218498 0.75 L0.12500000000000006 0.75 L17.625 0.75 L17.657352380637814 0.75 L17.6875 0.75 L23.1875 0.75 L23.21338834764832 0.75 L23.233253175473056 0.75 L23.245740728286133 0.75 L23.25 0.75 L23.25 0.75 L23.245740728286133 0.75 L23.233253175473056 0.75 L23.21338834764832 0.75 L23.1875 0.75 L23.157352380637814 0.75 L23.125 0.75 L9.875 0.75 L9.842647619362184 0.75 L9.8125 0.75 L9.78661165235168 0.75 L0.03661165235168147 0.75 L0.01674682452694512 0.75 z"/>
<path fill="#4682b4" stroke="#4682b4" d="M0.004259271713866447 0 L0.01674682452694512 0 L0.03661165235168147 0 L9.78661165235168 0 L9.8125 0 L9.842647619362184 0 L9.875 0 L23.125 0 L23.157352380637814 0 L23.1875 0 L23.21338834764832 0 L23.233253175473056 0 L23.245740728286133 0 L23.25 0 L23.25 0 L23.245740728286133 0 L23.233253175473056 0 L23.21338834764832 0 L23.1875 0 L17.6875 0 L17.657352380637814 0 L17.625 0 L0.12500000000000006 0 L0.09264761936218498 0 L0.06250000000000007 0 L0.03661165235168161 0 L0.01674682452694519 0 L0.004259271713866475 0 L0 0 z"/>
<path fill="#4682b4" stroke="#4682b4" d="M0 0 L0 0 L0 0.75 L0 0.75 z"/>
<path fill="#4682b4" stroke="#4682b4" d="M0.00425927171386585 0 L-1.080192734674341e-15 0 L-1.080192734674341e-15 0.75 L0.00425927171386585 0.75 z"/>
<path fill="#4682b4" stroke="#4682b4" d="M0.016746824526942757 0 L0.004259271713862667 0 L0.004259271713862667 0.75 L0.016746824526942757 0.75 z"/>
<path fill="#4682b4" stroke="#4682b4" d="M0.036611652351678306 0 L0.0167468245269397 0 L0.0167468245269397 0.75 L0.036611652351678306 0.75 z"/>
<path fill="#4682b4" stroke="#4682b4" d="M0.06249999999999984 0 L0.03661165235168146 0 L0.03661165235168146 0.75 L0.06249999999999984 0.75 z"/>
<path fill="#4682b4" stroke="#4682b4" d="M0.09264761936218469 0 L0.06249999999999984 0 L0.06249999999999984 0.75 L0.09264761936218469 0.75 z"/>
<path fill="#4682b4" stroke="#4682b4" d="M0.12499999999999999 0 L0.0926476193621847 0 L0.0926476193621847 0.75 L0.12499999999999999 0.75 z"/>
<path fill="#4682b4" stroke="#4682b4" d="M0.15735238063781506 0 L0.12499999999999999 0 L0.12499999999999999 0.75 L0.15735238063781506 0.75 z"/>
<path fill="#4682b4" stroke="#4682b4" d="M0.18749999999999997 0 L0.15735238063781506 0 L0.15735238063781506 0.75 L0.18749999999999997 0.75 z"/>
<path fill="#4682b4" stroke="#4682b4" d="M0.2133883476483184 0 L0.18749999999999994 0 L0.18749999999999994 0.75 L0.2133883476483184 0.75 z"/>
<path fill="#4682b4" stroke="#4682b4" d="M20.213388347648316 0 L0.21338834764831838 0 L0.21338834764831838 0.75 L20.213388347648316 0.75 z"/>
<path fill="#4682b4" stroke="#4682b4" d="M20.233253175473056 0 L20.213388347648323 0 L20.213388347648323 0.75 L20.233253175473056 0.75 z"/>
<path fill="#4682b4" stroke="#4682b4" d="M20.245740728286133 0 L20.233253175473056 0 L20.233253175473056 0.75 L20.245740728286133 0.75 z"/>
<path fill="#4682b4" stroke="#4682b4" d="M24.245740728286133 0 L20.245740728286133 0 L20.245740728286133 0.75 L24.245740728286133 0.75 z"/>
<path fill="#4682b4" stroke="#4682b4" d="M24.25 0 L24.245740728286133 0 L24.245740728286133 0.75 L24.25 0.75 z"/>
<path fill="#4682b4" stroke="#4682b4" d="M24.25 0 L24.25 0 L24.25 0.75 L24.25 0.75 z"/>
<path fill="#4682b4" stroke="#4682b4" d="M24.24574072828613 0 L24.249999999999996 0 L24.249999999999996 0.75 L24.24574072828613 0.75 z"/>
<path fill="#4682b4" stroke="#4682b4" d="M24.233253175473052 0 L24.24574072828613 0 L24.24574072828613 0.75 L24.233253175473052 0.75 z"/>
<path fill="#4682b4" stroke="#4682b4" d="M24.213388347648316 0 L24.233253175473052 0 L24.233253175473052 0.75 L24.213388347648316 0.75 z"/>
<path fill="#4682b4" stroke="#4682b4" d="M24.187499999999996 0 L24.213388347648316 0 L24.213388347648316 0.75 L24.187499999999996 0.75 z"/>
<path fill="#4682b4" stroke="#4682b4" d="M24.15735238063781 0 L24.187499999999996 0 L24.187499999999996 0.75 L24.15735238063781 0.75 z"/>
<path fill="#4682b4" stroke="#4682b4" d="M24.124999999999996 0 L24.15735238063781 0 L24.15735238063781 0.75 L24.124999999999996 0.75 z"/>
<path fill="#4682b4" stroke="#4682b4" d="M0.12500000000000006 0 L24.125 0 L24.125 0.7499999999999999 L0.12500000000000006 0.7499999999999999 z"/>
<path fill="#4682b4" stroke="#4682b4" d="M0.09264761936218496 0 L0.12500000000000006 0 L0.12500000000000006 0.75 L0.09264761936218496 0.75 z"/>
<path fill="#4682b4" stroke="#4682b4" d="M0.06250000000000006 0 L0.09264761936218495 0 L0.09264761936218495 0.75 L0.06250000000000006 0.75 z"/>
<path fill="#4682b4" stroke="#4682b4" d="M0.0366116523516816 0 L0.06250000000000006 0 L0.06250000000000006 0.75 L0.0366116523516816 0.75 z"/>
<path fill="#4682b4" stroke="#4682b4" d="M0.01674682452694519 0 L0.03661165235168161 0 L0.03661165235168161 0.75 L0.01674682452694519 0.75 z"/>
<path fill="#4682b4" stroke="#4682b4" d="M0.004259271713866481 0 L0.016746824526945193 0 L0.016746824526945193 0.75 L0.004259271713866481 0.75 z"/>
<path fill="#4682b4" stroke="#4682b4" d="M2.3844065057114798e-18 0 L0.004259271713866475 0 L0.004259271713866475 0.75 L2.3844065057114798e-18 0.75 z"/>
<path fill="#4682b4" stroke="#4682b4" d="M0.004259271713866447 0.75 L0 0.75 L0 0.75 L0.004259271713866475 0.75 L0.01674682452694519 0.75 L0.03661165235168161 0.75 L0.06250000000000007 0.75 L0.09264761936218498 0.75 L0.12500000000000006 0.75 L24.125 0.75 L24.157352380637814 0.75 L24.1875 0.75 L24.21338834764832 0.75 L24.233253175473056 0.75 L24.245740728286133 0.75 L24.25 0.75 L24.25 0.75 L24.245740728286133 0.75 L20.245740728286133 0.75 L20.233253175473056 0.75 L20.21338834764832 0.75 L0.2133883476483184 0.75 L0.18749999999999997 0.75 L0.1573523806378151 0.75 L0.125 0.75 L0.0926476193621847 0.75 L0.06249999999999985 0.75 L0.03661165235168147 0.75 L0.01674682452694512 0.75 z"/>
<path fill="#4682b4" stroke="#4682b4" d="M0 0 L0.004259271713866447 0 L0.01674682452694512 0 L0.03661165235168147 0 L0.06249999999999985 0 L0.0926476193621847 0 L0.125 0 L0.1573523806378151 0 L0.18749999999999997 0 L0.2133883476483184 0 L20.21338834764832 0 L20.233253175473056 0 L20.245740728286133 0 L24.245740728286133 0 L24.25 0 L24.25 0 L24.245740728286133 0 L24.233253175473056 0 L24.21338834764832 0 L24.1875 0 L24.157352380637814 0 L24.125 0 L0.12500000000000006 0 L0.09264761936218498 0 L0.06250000000000007 0 L0.03661165235168161 0 L0.01674682452694519 0 L0.004259271713866475 0 L0 0 z"/>
<path fill="#4682b4" stroke="#4682b4" d="M27.983949709602793 0.75 L27.89834578475301 0.75 L27.85415394013439 0.75 L27.85415394013439 0 L27.857994358403104 0 L27.90638362858888 0 L27.97714074913043 0 L27.983949709602793 0 L27.984728161270613 0 L27.984728161270613 0.75 z"/>
<path fill="#4682b4" stroke="#4682b4" d="M29.823610262675622 0 L29.823610262675622 0.75 L29.911993951912862 0.75 L29.954184483811847 0.75 L29.954184483811847 0 L29.950344065543135 0 L29.894960745992897 0 L29.84972510690287 0 z"/>
<path fill="#4682b4" stroke="#4682b4" d="M25.217773277214206 0.75 L25.06696537004361 0.75 L24.045815516188146 0.75 L24.045815516188146 0 L25.06696537004361 0 L25.217773277214206 0 L25.551572198242265 0 L25.957346652772287 0 L26.01527183872938 0 L26.01527183872938 0.75 L25.551572198242265 0.75 z"/>
<path fill="#4682b4" stroke="#4682b4" d="M28.319457436856872 0 L29.89625929785475 0 L29.954184483811847 0 L29.954184483811847 0.75 L28.319457436856872 0.75 L27.984728161270613 0.75 L27.984728161270613 0 z"/>
<path fill="#4682b4" stroke="#4682b4" d="M24.037670313485357 0 L24.038520327000768 0 L24.039267723302537 0 L24.040052937066026 0 L24.040561690946518 0 L24.04116174576551 0 L24.04146380041486 0 L24.041775524366194 0 L24.041910495765332 0 L24.045815516188146 0 L24.045815516188146 0.75 L24.041910495765332 0.75 L24.04146380041486 0.75 L24.040561690946518 0.75 L24.039267723302537 0.75 L24.037670313485357 0.75 L24.03587666732293 0.75 L23.91524129505192 0.75 L23.91524129505192 0 L23.919081713320633 0 L24.0197006719609 0 L24.03587666732293 0 L24.03668641510743 0 z"/>
<path fill="#4682b4" stroke="#4682b4" d="M25.884697617593158 0 L25.884697617593158 0.75 L26.00991318846286 0.75 L26.012584146625258 0.75 L26.01496288490668 0.75 L26.01527183872938 0.75 L26.01527183872938 0 L26.01496288490668 0 L26.014927619444173 0 L26.012584146625258 0 L26.012259487313745 0 L26.011431420460667 0 L26.00991318846286 0 L25.96304215027489 0 z"/>
<path fill="#4682b4" stroke="#4682b4" d="M25.884697617593154 0 L25.82677243163606 0 L23.91524129505192 0 L23.91524129505192 0.75 L25.884697617593154 0.75 z"/>
<path fill="#4682b4" stroke="#4682b4" d="M29.823610262675622 0 L29.765685076718526 0 L27.854153940134392 0 L27.854153940134392 0.75 L29.823610262675622 0.75 z"/>
<path fill="#4682b4" stroke="#4682b4" d="M20.004259271713863 0 L19.999999999999996 0 L19.999999999999996 0.75 L20.004259271713863 0.75 z"/>
<path fill="#4682b4" stroke="#4682b4" d="M20.01674682452694 0 L20.004259271713863 0 L20.004259271713863 0.75 L20.01674682452694 0.75 z"/>
<path fill="#4682b4" stroke="#4682b4" d="M20.036611652351674 0 L20.01674682452694 0 L20.01674682452694 0.75 L20.036611652351674 0.75 z"/>
<path fill="#4682b4" stroke="#4682b4" d="M20.062499999999996 0 L20.036611652351674 0 L20.036611652351674 0.75 L20.062499999999996 0.75 z"/>
<path fill="#4682b4" stroke="#4682b4" d="M20.092647619362182 0 L20.062499999999996 0 L20.062499999999996 0.75 L20.092647619362182 0.75 z"/>
<path fill="#4682b4" stroke="#4682b4" d="M20.124999999999996 0 L20.092647619362182 0 L20.092647619362182 0.75 L20.124999999999996 0.75 z"/>
<path fill="#4682b4" stroke="#4682b4" d="M20.15735238063781 0 L20.124999999999996 0 L20.124999999999996 0.75 L20.15735238063781 0.75 z"/>
<path fill="#4682b4" stroke="#4682b4" d="M32.15735238063781 0 L20.15735238063781 0 L20.15735238063781 0.75 L32.15735238063781 0.75 z"/>
<path fill="#4682b4" stroke="#4682b4" d="M32.18749999999999 0 L32.15735238063781 0 L32.15735238063781 0.75 L32.18749999999999 0.75 z"/>
<path fill="#4682b4" stroke="#4682b4" d="M32.21338834764831 0 L32.18749999999999 0 L32.18749999999999 0.75 L32.21338834764831 0.75 z"/>
<path fill="#4682b4" stroke="#4682b4" d="M32.23325317547305 0 L32.21338834764832 0 L32.21338834764832 0.75 L32.23325317547305 0.75 z"/>
<path fill="#4682b4" stroke="#4682b4" d="M32.24574072828614 0 L32.23325317547305 0 L32.23325317547305 0.75 L32.24574072828614 0.75 z"/>
<path fill="#4682b4" stroke="#4682b4" d="M32.25 0 L32.24574072828614 0 L32.24574072828614 0.75 L32.25 0.75 z"/>
<path fill="#4682b4" stroke="#4682b4" d="M32.25 0 L32.25 0 L32.25 0.75 L32.25 0.75 z"/>
<path fill="#4682b4" stroke="#4682b4" d="M32.24574072828613 0 L32.24999999999999 0 L32.24999999999999 0.75 L32.24574072828613 0.75 z"/>
<path fill="#4682b4" stroke="#4682b4" d="M32.233253175473045 0 L32.24574072828613 0 L32.24574072828613 0.75 L32.233253175473045 0.75 z"/>
<path fill="#4682b4" stroke="#4682b4" d="M32.21338834764831 0 L32.233253175473045 0 L32.233253175473045 0.75 L32.21338834764831 0.75 z"/>
<path fill="#4682b4" stroke="#4682b4" d="M32.18749999999999 0 L32.21338834764831 0 L32.21338834764831 0.75 L32.18749999999999 0.75 z"/>
<path fill="#4682b4" stroke="#4682b4" d="M32.15735238063781 0 L32.18749999999999 0 L32.18749999999999 0.75 L32.15735238063781 0.75 z"/>
<path fill="#4682b4" stroke="#4682b4" d="M32.12499999999999 0 L32.15735238063781 0 L32.15735238063781 0.75 L32.12499999999999 0.75 z"/>
<path fill="#4682b4" stroke="#4682b4" d="M32.09264761936218 0 L32.12499999999999 0 L32.12499999999999 0.75 L32.09264761936218 0.75 z"/>
<path fill="#4682b4" stroke="#4682b4" d="M32.06249999999999 0 L32.092647619362175 0 L32.092647619362175 0.75 L32.06249999999999 0.75 z"/>
<path fill="#4682b4" stroke="#4682b4" d="M20.062499999999996 0 L32.0625 0 L32.0625 0.75 L20.062499999999996 0.75 z"/>
<path fill="#4682b4" stroke="#4682b4" d="M20.036611652351674 0 L20.062499999999996 0 L20.062499999999996 0.75 L20.036611652351674 0.75 z"/>
<path fill="#4682b4" stroke="#4682b4" d="M20.016746824526948 0 L20.03661165235168 0 L20.03661165235168 0.75 L20.016746824526948 0.75 z"/>
<path fill="#4682b4" stroke="#4682b4" d="M20.004259271713867 0 L20.016746824526944 0 L20.016746824526944 0.75 L20.004259271713867 0.75 z"/>
<path fill="#4682b4" stroke="#4682b4" d="M20 0 L20.004259271713867 0 L20.004259271713867 0.75 L20 0.75 z"/>
<path fill="#4682b4" stroke="#4682b4" d="M32.25 0.75 L32.24574072828614 0.75 L32.23325317547305 0.75 L32.21338834764832 0.75 L32.1875 0.75 L32.15735238063782 0.75 L20.157352380637814 0.75 L20.125 0.75 L20.092647619362186 0.75 L20.0625 0.75 L20.03661165235168 0.75 L20.016746824526944 0.75 L20.004259271713867 0.75 L20 0.75 L20.004259271713867 0.75 L20.016746824526944 0.75 L20.03661165235168 0.75 L20.0625 0.75 L32.0625 0.75 L32.09264761936218 0.75 L32.125 0.75 L32.15735238063782 0.75 L32.1875 0.75 L32.21338834764832 0.75 L32.23325317547305 0.75 L32.24574072828614 0.75 L32.25 0.75 M24.03587666732293 0.75 L24.037670313485357 0.75 L24.039267723302537 0.75 L24.040561690946518 0.75 L24.04146380041486 0.75 L24.041910495765332 0.75 L24.045815516188146 0.75 L25.066965370043615 0.75 L25.217773277214206 0.75 L25.551572198242265 0.75 L26.01527183872938 0.75 L26.01496288490668 0.75 L26.012584146625258 0.75 L26.00991318846286 0.75 L25.884697617593158 0.75 L23.915241295051924 0.75 z"/>
<path fill="#4682b4" stroke="#4682b4" d="M32.25 0 L32.25 0 L32.24574072828614 0 L32.23325317547305 0 L32.21338834764832 0 L32.1875 0 L32.15735238063782 0 L32.125 0 L32.09264761936218 0 L32.0625 0 L20.0625 0 L20.03661165235168 0 L20.016746824526944 0 L20.004259271713867 0 L20 0 L20.004259271713867 0 L20.016746824526944 0 L20.03661165235168 0 L20.0625 0 L20.092647619362186 0 L20.125 0 L20.157352380637814 0 L32.15735238063782 0 L32.1875 0 L32.21338834764832 0 L32.23325317547305 0 L32.24574072828614 0 M26.00991318846286 0 L26.011431420460667 0 L26.012259487313745 0 L26.012584146625258 0 L26.014927619444173 0 L26.01496288490668 0 L26.01527183872938 0 L25.957346652772287 0 L25.551572198242265 0 L25.217773277214206 0 L25.066965370043615 0 L24.045815516188146 0 L24.041910495765332 0 L24.041775524366194 0 L24.04146380041486 0 L24.04116174576551 0 L24.040561690946518 0 L24.040052937066026 0 L24.039267723302537 0 L24.038520327000768 0 L24.037670313485357 0 L24.03668641510743 0 L24.03587666732293 0 L24.0197006719609 0 L23.919081713320637 0 L23.915241295051924 0 L25.826772431636062 0 L25.884697617593158 0 L25.96304215027489 0 z"/>
<path fill="#4682b4" stroke="#4682b4" d="M0.00425927171386585 0.75 L0.00425927171386585 0 L-1.080192734674341e-15 0 L-1.080192734674341e-15 0.75 z"/>
<path fill="#4682b4" stroke="#4682b4" d="M0.016746824526942757 0.75 L0.016746824526942757 0 L0.004259271713862667 0 L0.004259271713862667 0.75 z"/>
<path fill="#4682b4" stroke="#4682b4" d="M0.036611652351678306 0.75 L0.036611652351678306 0 L0.0167468245269397 0 L0.0167468245269397 0.75 z"/>
<path fill="#4682b4" stroke="#4682b4" d="M0.06249999999999984 0.75 L0.06249999999999984 0 L0.03661165235168146 0 L0.03661165235168146 0.75 z"/>
<path fill="#4682b4" stroke="#4682b4" d="M0.09264761936218469 0.75 L0.09264761936218469 0 L0.06249999999999984 0 L0.06249999999999984 0.75 z"/>
<path fill="#4682b4" stroke="#4682b4" d="M0.12499999999999999 0.75 L0.12499999999999999 0 L0.0926476193621847 0 L0.0926476193621847 0.75 z"/>
<path fill="#4682b4" stroke="#4682b4" d="M17.624999999999996 0.75 L17.624999999999996 0 L0.12499999999999999 0 L0.12499999999999999 0.75 z"/>
<path fill="#4682b4" stroke="#4682b4" d="M17.65735238063781 0.75 L17.65735238063781 0 L17.624999999999996 0 L17.624999999999996 0.75 z"/>
<path fill="#4682b4" stroke="#4682b4" d="M17.687499999999996 0.75 L17.687499999999996 0 L17.65735238063781 0 L17.65735238063781 0.75 z"/>
<path fill="#4682b4" stroke="#4682b4" d="M17.713388347648316 0.75 L17.713388347648316 0 L17.687499999999996 0 L17.687499999999996 0.75 z"/>
<path fill="#4682b4" stroke="#4682b4" d="M17.733253175473056 0.75 L17.733253175473056 0 L17.713388347648323 0 L17.713388347648323 0.75 z"/>
<path fill="#4682b4" stroke="#4682b4" d="M17.745740728286133 0.75 L17.745740728286133 0 L17.733253175473056 0 L17.733253175473056 0.75 z"/>
<path fill="#4682b4" stroke="#4682b4" d="M17.75 0.75 L17.75 0 L17.745740728286133 0 L17.745740728286133 0.75 z"/>
<path fill="#4682b4" stroke="#4682b4" d="M20.25 0.75 L20.25 0 L17.75 0 L17.75 0.75 z"/>
<path fill="#4682b4" stroke="#4682b4" d="M20.24574072828613 0.75 L20.24574072828613 0 L20.249999999999996 0 L20.249999999999996 0.75 z"/>
<path fill="#4682b4" stroke="#4682b4" d="M20.233253175473052 0.75 L20.233253175473052 0 L20.24574072828613 0 L20.24574072828613 0.75 z"/>
<path fill="#4682b4" stroke="#4682b4" d="M20.213388347648316 0.75 L20.213388347648316 0 L20.23325317547305 0 L20.23325317547305 0.75 z"/>
<path fill="#4682b4" stroke="#4682b4" d="M20.187499999999996 0.75 L20.187499999999996 0 L20.213388347648316 0 L20.213388347648316 0.75 z"/>
<path fill="#4682b4" stroke="#4682b4" d="M20.15735238063781 0.75 L20.15735238063781 0 L20.187499999999996 0 L20.187499999999996 0.75 z"/>
<path fill="#4682b4" stroke="#4682b4" d="M20.124999999999996 0.75 L20.124999999999996 0 L20.15735238063781 0 L20.15735238063781 0.75 z"/>
<path fill="#4682b4" stroke="#4682b4" d="M20.092647619362182 0.75 L20.092647619362182 0 L20.124999999999996 0 L20.124999999999996 0.75 z"/>
<path fill="#4682b4" stroke="#4682b4" d="M20.062499999999996 0.75 L20.062499999999996 0 L20.092647619362182 0 L20.092647619362182 0.75 z"/>
<path fill="#4682b4" stroke="#4682b4" d="M20.036611652351674 0.75 L20.036611652351674 0 L20.062499999999996 0 L20.062499999999996 0.75 z"/>
<path fill="#4682b4" stroke="#4682b4" d="M0.0366116523516816 0.75 L0.0366116523516816 0 L20.036611652351677 0 L20.036611652351677 0.75 z"/>
<path fill="#4682b4" stroke="#4682b4" d="M0.01674682452694693 0.75 L0.01674682452694693 0 L0.036611652351685606 0 L0.036611652351685606 0.75 z"/>
<path fill="#4682b4" stroke="#4682b4" d="M0.004259271713868383 0.75 L0.004259271713868383 0 L0.016746824526948517 0 L0.016746824526948517 0.75 z"/>
<path fill="#4682b4" stroke="#4682b4" d="M1.0801927346743482e-15 0.75 L1.0801927346743482e-15 0 L0.004259271713866586 0 L0.004259271713866586 0.75 z"/>
<path fill="#4682b4" stroke="#4682b4" d="M0.004259271713866447 0.75 L0 0.75 L0.004259271713866475 0.75 L0.01674682452694519 0.75 L0.03661165235168161 0.75 L20.03661165235168 0.75 L20.0625 0.75 L20.092647619362186 0.75 L20.125 0.75 L20.157352380637814 0.75 L20.1875 0.75 L20.21338834764832 0.75 L20.233253175473056 0.75 L20.245740728286133 0.75 L20.25 0.75 L17.75 0.75 L17.745740728286133 0.75 L17.733253175473056 0.75 L17.71338834764832 0.75 L17.6875 0.75 L17.657352380637814 0.75 L17.625 0.75 L0.125 0.75 L0.0926476193621847 0.75 L0.06249999999999985 0.75 L0.03661165235168147 0.75 L0.01674682452694512 0.75 z"/>
<path fill="#4682b4" stroke="#4682b4" d="M0.004259271713866447 0 L0.01674682452694512 0 L0.03661165235168147 0 L0.06249999999999985 0 L0.0926476193621847 0 L0.125 0 L17.625 0 L17.657352380637814 0 L17.6875 0 L17.71338834764832 0 L17.733253175473056 0 L17.745740728286133 0 L17.75 0 L20.25 0 L20.245740728286133 0 L20.233253175473056 0 L20.21338834764832 0 L20.1875 0 L20.157352380637814 0 L20.125 0 L20.092647619362186 0 L20.0625 0 L20.03661165235168 0 L0.03661165235168161 0 L0.01674682452694519 0 L0.004259271713866475 0 L0 0 z"/>
<path fill="#4682b4" stroke="#4682b4" d="M20.004259271713863 0 L19.999999999999996 0 L19.999999999999996 0.75 L20.004259271713863 0.75 z"/>
<path fill="#4682b4" stroke="#4682b4" d="M20.01674682452694 0 L20.004259271713863 0 L20.004259271713863 0.75 L20.01674682452694 0.75 z"/>
<path fill="#4682b4" stroke="#4682b4" d="M20.036611652351674 0 L20.01674682452694 0 L20.01674682452694 0.75 L20.036611652351674 0.75 z"/>
<path fill="#4682b4" stroke="#4682b4" d="M20.062499999999996 0 L20.036611652351674 0 L20.036611652351674 0.75 L20.062499999999996 0.75 z"/>
<path fill="#4682b4" stroke="#4682b4" d="M20.092647619362182 0 L20.062499999999996 0 L20.062499999999996 0.75 L20.092647619362182 0.75 z"/>
<path fill="#4682b4" stroke="#4682b4" d="M20.124999999999996 0 L20.092647619362182 0 L20.092647619362182 0.75 L20.124999999999996 0.75 z"/>
<path fill="#4682b4" stroke="#4682b4" d="M20.15735238063781 0 L20.124999999999996 0 L20.124999999999996 0.75 L20.15735238063781 0.75 z"/>
<path fill="#4682b4" stroke="#4682b4" d="M20.187499999999996 0 L20.15735238063781 0 L20.15735238063781 0.75 L20.187499999999996 0.75 z"/>
<path fill="#4682b4" stroke="#4682b4" d="M32.18749999999999 0 L20.187499999999996 0 L20.187499999999996 0.75 L32.18749999999999 0.75 z"/>
<path fill="#4682b4" stroke="#4682b4" d="M32.21338834764831 0 L32.18749999999999 0 L32.18749999999999 0.75 L32.21338834764831 0.75 z"/>
<path fill="#4682b4" stroke="#4682b4" d="M32.23325317547305 0 L32.21338834764832 0 L32.21338834764832 0.75 L32.23325317547305 0.75 z"/>
<path fill="#4682b4" stroke="#4682b4" d="M32.24574072828614 0 L32.23325317547305 0 L32.23325317547305 0.75 L32.24574072828614 0.75 z"/>
<path fill="#4682b4" stroke="#4682b4" d="M32.25 0 L32.24574072828614 0 L32.24574072828614 0.75 L32.25 0.75 z"/>
<path fill="#4682b4" stroke="#4682b4" d="M32.24574072828613 0 L32.24999999999999 0 L32.24999999999999 0.75 L32.24574072828613 0.75 z"/>
<path fill="#4682b4" stroke="#4682b4" d="M32.233253175473045 0 L32.24574072828613 0 L32.24574072828613 0.75 L32.233253175473045 0.75 z"/>
<path fill="#4682b4" stroke="#4682b4" d="M32.21338834764831 0 L32.233253175473045 0 L32.233253175473045 0.75 L32.21338834764831 0.75 z"/>
<path fill="#4682b4" stroke="#4682b4" d="M24.213388347648316 0 L32.21338834764832 0 L32.21338834764832 0.75 L24.213388347648316 0.75 z"/>
<path fill="#4682b4" stroke="#4682b4" d="M24.187499999999996 0 L24.213388347648316 0 L24.213388347648316 0.75 L24.187499999999996 0.75 z"/>
<path fill="#4682b4" stroke="#4682b4" d="M24.15735238063781 0 L24.187499999999996 0 L24.187499999999996 0.75 L24.15735238063781 0.75 z"/>
<path fill="#4682b4" stroke="#4682b4" d="M24.124999999999996 0 L24.15735238063781 0 L24.15735238063781 0.75 L24.124999999999996 0.75 z"/>
<path fill="#4682b4" stroke="#4682b4" d="M24.092647619362182 0 L24.124999999999996 0 L24.124999999999996 0.75 L24.092647619362182 0.75 z"/>
<path fill="#4682b4" stroke="#4682b4" d="M24.062499999999993 0 L24.092647619362182 0 L24.092647619362182 0.75 L24.062499999999993 0.75 z"/>
<path fill="#4682b4" stroke="#4682b4" d="M24.036611652351677 0 L24.062499999999993 0 L24.062499999999993 0.75 L24.036611652351677 0.75 z"/>
<path fill="#4682b4" stroke="#4682b4" d="M24.016746824526944 0 L24.03661165235168 0 L24.03661165235168 0.75 L24.016746824526944 0.75 z"/>
<path fill="#4682b4" stroke="#4682b4" d="M24.004259271713867 0 L24.016746824526944 0 L24.016746824526944 0.75 L24.004259271713867 0.75 z"/>
<path fill="#4682b4" stroke="#4682b4" d="M20.004259271713867 0 L24.004259271713867 0 L24.004259271713867 0.75 L20.004259271713867 0.75 z"/>
<path fill="#4682b4" stroke="#4682b4" d="M20 0 L20.004259271713867 0 L20.004259271713867 0.75 L20 0.75 z"/>
<path fill="#4682b4" stroke="#4682b4" d="M20.016746824526944 0.75 L20.004259271713867 0.75 L20 0.75 L20.004259271713867 0.75 L24.004259271713867 0.75 L24.016746824526944 0.75 L24.03661165235168 0.75 L24.0625 0.75 L24.092647619362186 0.75 L24.125 0.75 L24.157352380637814 0.75 L24.1875 0.75 L24.21338834764832 0.75 L32.21338834764832 0.75 L32.23325317547305 0.75 L32.24574072828614 0.75 L32.25 0.75 L32.24574072828614 0.75 L32.23325317547305 0.75 L32.21338834764832 0.75 L32.1875 0.75 L20.1875 0.75 L20.157352380637814 0.75 L20.125 0.75 L20.092647619362186 0.75 L20.0625 0.75 L20.03661165235168 0.75 z"/>
<path fill="#4682b4" stroke="#4682b4" d="M20.004259271713867 0 L20.016746824526944 0 L20.03661165235168 0 L20.0625 0 L20.092647619362186 0 L20.125 0 L20.157352380637814 0 L20.1875 0 L32.1875 0 L32.21338834764832 0 L32.23325317547305 0 L32.24574072828614 0 L32.25 0 L32.24574072828614 0 L32.23325317547305 0 L32.21338834764832 0 L24.21338834764832 0 L24.1875 0 L24.157352380637814 0 L24.125 0 L24.092647619362186 0 L24.0625 0 L24.03661165235168 0 L24.016746824526944 0 L24.004259271713867 0 L20.004259271713867 0 L20 0 z"/>
<path fill="#4682b4" stroke="#4682b4" d="M0.00425927171386585 -24 L0.00425927171386585 -24.75 L-1.080192734674341e-15 -24.75 L-1.080192734674341e-15 -24 z"/>
<path fill="#4682b4" stroke="#4682b4" d="M0.016746824526942757 -24 L0.016746824526942757 -24.75 L0.004259271713862667 -24.75 L0.004259271713862667 -24 z"/>
<path fill="#4682b4" stroke="#4682b4" d="M0.036611652351678306 -24 L0.036611652351678306 -24.75 L0.0167468245269397 -24.75 L0.0167468245269397 -24 z"/>
<path fill="#4682b4" stroke="#4682b4" d="M9.786611652351677 -24 L9.786611652351677 -24.75 L0.03661165235168075 -24.75 L0.03661165235168075 -24 z"/>
<path fill="#4682b4" stroke="#4682b4" d="M9.812499999999998 -24 L9.812499999999998 -24.75 L9.786611652351679 -24.75 L9.786611652351679 -24 z"/>
<path fill="#4682b4" stroke="#4682b4" d="M9.842647619362182 -24 L9.842647619362182 -24.75 L9.812499999999998 -24.75 L9.812499999999998 -24 z"/>
<path fill="#4682b4" stroke="#4682b4" d="M9.874999999999998 -24 L9.874999999999998 -24.75 L9.842647619362182 -24.75 L9.842647619362182 -24 z"/>
<path fill="#4682b4" stroke="#4682b4" d="M23.125 -23.999999999999996 L23.125 -24.749999999999996 L9.875 -24.749999999999996 L9.875 -23.999999999999996 z"/>
<path fill="#4682b4" stroke="#4682b4" d="M23.15735238063781 -24 L23.15735238063781 -24.75 L23.124999999999996 -24.75 L23.124999999999996 -24 z"/>
<path fill="#4682b4" stroke="#4682b4" d="M23.187499999999996 -24 L23.187499999999996 -24.75 L23.157352380637807 -24.75 L23.157352380637807 -24 z"/>
<path fill="#4682b4" stroke="#4682b4" d="M23.213388347648316 -24 L23.213388347648316 -24.75 L23.187499999999996 -24.75 L23.187499999999996 -24 z"/>
<path fill="#4682b4" stroke="#4682b4" d="M23.23325317547306 -24 L23.23325317547306 -24.75 L23.213388347648323 -24.75 L23.213388347648323 -24 z"/>
<path fill="#4682b4" stroke="#4682b4" d="M23.245740728286133 -24 L23.245740728286133 -24.75 L23.233253175473056 -24.75 L23.233253175473056 -24 z"/>
<path fill="#4682b4" stroke="#4682b4" d="M23.25 -24 L23.25 -24.75 L23.245740728286133 -24.75 L23.245740728286133 -24 z"/>
<path fill="#4682b4" stroke="#4682b4" d="M23.25 -24 L23.25 -24.75 L23.25 -24.75 L23.25 -24 z"/>
<path fill="#4682b4" stroke="#4682b4" d="M23.24574072828613 -24 L23.24574072828613 -24.75 L23.249999999999996 -24.75 L23.249999999999996 -24 z"/>
<path fill="#4682b4" stroke="#4682b4" d="M23.233253175473052 -24 L23.233253175473052 -24.75 L23.24574072828613 -24.75 L23.24574072828613 -24 z"/>
<path fill="#4682b4" stroke="#4682b4" d="M23.213388347648316 -24 L23.213388347648316 -24.75 L23.23325317547305 -24.75 L23.23325317547305 -24 z"/>
<path fill="#4682b4" stroke="#4682b4" d="M23.187499999999996 -24 L23.187499999999996 -24.75 L23.213388347648316 -24.75 L23.213388347648316 -24 z"/>
<path fill="#4682b4" stroke="#4682b4" d="M17.687499999999996 -24 L17.687499999999996 -24.75 L23.187499999999996 -24.75 L23.187499999999996 -24 z"/>
<path fill="#4682b4" stroke="#4682b4" d="M17.65735238063781 -24 L17.65735238063781 -24.75 L17.687499999999996 -24.75 L17.687499999999996 -24 z"/>
<path fill="#4682b4" stroke="#4682b4" d="M17.624999999999996 -24 L17.624999999999996 -24.75 L17.65735238063781 -24.75 L17.65735238063781 -24 z"/>
<path fill="#4682b4" stroke="#4682b4" d="M0.12500000000000006 -24 L0.12500000000000006 -24.75 L17.624999999999996 -24.75 L17.624999999999996 -24 z"/>
<path fill="#4682b4" stroke="#4682b4" d="M0.09264761936218496 -24 L0.09264761936218496 -24.75 L0.12500000000000006 -24.75 L0.12500000000000006 -24 z"/>
<path fill="#4682b4" stroke="#4682b4" d="M0.06250000000000006 -24 L0.06250000000000006 -24.75 L0.09264761936218495 -24.75 L0.09264761936218495 -24 z"/>
<path fill="#4682b4" stroke="#4682b4" d="M0.0366116523516816 -24 L0.0366116523516816 -24.75 L0.06250000000000006 -24.75 L0.06250000000000006 -24 z"/>
<path fill="#4682b4" stroke="#4682b4" d="M0.01674682452694693 -24 L0.01674682452694693 -24.75 L0.036611652351685606 -24.75 L0.036611652351685606 -24 z"/>
<path fill="#4682b4" stroke="#4682b4" d="M0.004259271713868383 -24 L0.004259271713868383 -24.75 L0.016746824526948517 -24.75 L0.016746824526948517 -24 z"/>
<path fill="#4682b4" stroke="#4682b4" d="M1.0801927346743482e-15 -24 L1.0801927346743482e-15 -24.75 L0.004259271713866586 -24.75 L0.004259271713866586 -24 z"/>
<path fill="#4682b4" stroke="#4682b4" d="M0.004259271713866447 -24 L0 -24 L0.004259271713866475 -24 L0.01674682452694519 -24 L0.03661165235168161 -24 L0.06250000000000007 -24 L0.09264761936218498 -24 L0.12500000000000006 -24 L17.625 -24 L17.657352380637814 -24 L17.6875 -24 L23.1875 -24 L23.21338834764832 -24 L23.233253175473056 -24 L23.245740728286133 -24 L23.25 -24 L23.25 -24 L23.245740728286133 -24 L23.233253175473056 -24 L23.21338834764832 -24 L23.1875 -24 L23.157352380637814 -24 L23.125 -24 L9.875 -24 L9.842647619362184 -24 L9.8125 -24 L9.78661165235168 -24 L0.03661165235168147 -24 L0.01674682452694512 -24 z"/>
<path fill="#4682b4" stroke="#4682b4" d="M0.004259271713866447 -24.75 L0.01674682452694512 -24.75 L0.03661165235168147 -24.75 L9.78661165235168 -24.75 L9.8125 -24.75 L9.842647619362184 -24.75 L9.875 -24.75 L23.125 -24.75 L23.157352380637814 -24.75 L23.1875 -24.75 L23.21338834764832 -24.75 L23.233253175473056 -24.75 L23.245740728286133 -24.75 L23.25 -24.75 L23.25 -24.75 L23.245740728286133 -24.75 L23.233253175473056 -24.75 L23.21338834764832 -24.75 L23.1875 -24.75 L17.6875 -24.75 L17.657352380637814 -24.75 L17.625 -24.75 L0.12500000000000006 -24.75 L0.09264761936218498 -24.75 L0.06250000000000007 -24.75 L0.03661165235168161 -24.75 L0.01674682452694519 -24.75 L0.004259271713866475 -24.75 L0 -24.75 z"/>
<path fill="#4682b4" stroke="#4682b4" d="M0 -24.75 L0 -24.75 L0 -24 L0 -24 z"/>
<path fill="#4682b4" stroke="#4682b4" d="M0.00425927171386585 -24.75 L-1.080192734674341e-15 -24.75 L-1.080192734674341e-15 -24 L0.00425927171386585 -24 z"/>
<path fill="#4682b4" stroke="#4682b4" d="M0.016746824526942757 -24.75 L0.004259271713862667 -24.75 L0.004259271713862667 -24 L0.016746824526942757 -24 z"/>
<path fill="#4682b4" stroke="#4682b4" d="M0.036611652351678306 -24.75 L0.0167468245269397 -24.75 L0.0167468245269397 -24 L0.036611652351678306 -24 z"/>
<path fill="#4682b4" stroke="#4682b4" d="M0.06249999999999984 -24.75 L0.03661165235168146 -24.75 L0.03661165235168146 -24 L0.06249999999999984 -24 z"/>
<path fill="#4682b4" stroke="#4682b4" d="M0.09264761936218469 -24.75 L0.06249999999999984 -24.75 L0.06249999999999984 -24 L0.09264761936218469 -24 z"/>
<path fill="#4682b4" stroke="#4682b4" d="M0.12499999999999999 -24.75 L0.0926476193621847 -24.75 L0.0926476193621847 -24 L0.12499999999999999 -24 z"/>
<path fill="#4682b4" stroke="#4682b4" d="M0.15735238063781506 -24.75 L0.12499999999999999 -24.75 L0.12499999999999999 -24 L0.15735238063781506 -24 z"/>
<path fill="#4682b4" stroke="#4682b4" d="M0.18749999999999997 -24.75 L0.15735238063781506 -24.75 L0.15735238063781506 -24 L0.18749999999999997 -24 z"/>
<path fill="#4682b4" stroke="#4682b4" d="M0.2133883476483184 -24.75 L0.18749999999999994 -24.75 L0.18749999999999994 -24 L0.2133883476483184 -24 z"/>
<path fill="#4682b4" stroke="#4682b4" d="M20.213388347648316 -24.75 L0.21338834764831838 -24.75 L0.21338834764831838 -24 L20.213388347648316 -24 z"/>
<path fill="#4682b4" stroke="#4682b4" d="M20.233253175473056 -24.75 L20.213388347648323 -24.75 L20.213388347648323 -24 L20.233253175473056 -24 z"/>
<path fill="#4682b4" stroke="#4682b4" d="M20.245740728286133 -24.75 L20.233253175473056 -24.75 L20.233253175473056 -24 L20.245740728286133 -24 z"/>
<path fill="#4682b4" stroke="#4682b4" d="M24.245740728286133 -24.75 L20.245740728286133 -24.75 L20.245740728286133 -24 L24.245740728286133 -24 z"/>
<path fill="#4682b4" stroke="#4682b4" d="M24.25 -24.75 L24.245740728286133 -24.75 L24.245740728286133 -24 L24.25 -24 z"/>
<path fill="#4682b4" stroke="#4682b4" d="M24.25 -24.75 L24.25 -24.75 L24.25 -24 L24.25 -24 z"/>
<path fill="#4682b4" stroke="#4682b4" d="M24.24574072828613 -24.75 L24.249999999999996 -24.75 L24.249999999999996 -24 L24.24574072828613 -24 z"/>
<path fill="#4682b4" stroke="#4682b4" d="M24.233253175473052 -24.75 L24.24574072828613 -24.75 L24.24574072828613 -24 L24.233253175473052 -24 z"/>
<path fill="#4682b4" stroke="#4682b4" d="M24.213388347648316 -24.75 L24.233253175473052 -24.75 L24.233253175473052 -24 L24.213388347648316 -24 z"/>
<path fill="#4682b4" stroke="#4682b4" d="M24.187499999999996 -24.75 L24.213388347648316 -24.75 L24.213388347648316 -24 L24.187499999999996 -24 z"/>
<path fill="#4682b4" stroke="#4682b4" d="M24.15735238063781 -24.75 L24.187499999999996 -24.75 L24.187499999999996 -24 L24.15735238063781 -24 z"/>
<path fill="#4682b4" stroke="#4682b4" d="M24.124999999999996 -24.75 L24.15735238063781 -24.75 L24.15735238063781 -24 L24.124999999999996 -24 z"/>
<path fill="#4682b4" stroke="#4682b4" d="M0.12500000000000006 -24.749999999999996 L24.125 -24.749999999999996 L24.125 -23.999999999999996 L0.12500000000000006 -23.999999999999996 z"/>
<path fill="#4682b4" stroke="#4682b4" d="M0.09264761936218496 -24.75 L0.12500000000000006 -24.75 L0.12500000000000006 -24 L0.09264761936218496 -24 z"/>
<path fill="#4682b4" stroke="#4682b4" d="M0.06250000000000006 -24.75 L0.09264761936218495 -24.75 L0.09264761936218495 -24 L0.06250000000000006 -24 z"/>
<path fill="#4682b4" stroke="#4682b4" d="M0.0366116523516816 -24.75 L0.06250000000000006 -24.75 L0.06250000000000006 -24 L0.0366116523516816 -24 z"/>
<path fill="#4682b4" stroke="#4682b4" d="M0.01674682452694519 -24.75 L0.03661165235168161 -24.75 L0.03661165235168161 -24 L0.01674682452694519 -24 z"/>
<path fill="#4682b4" stroke="#4682b4" d="M0.004259271713866481 -24.75 L0.016746824526945193 -24.75 L0.016746824526945193 -24 L0.004259271713866481 -24 z"/>
<path fill="#4682b4" stroke="#4682b4" d="M2.3844065057114798e-18 -24.75 L0.004259271713866475 -24.75 L0.004259271713866475 -24 L2.3844065057114798e-18 -24 z"/>
<path fill="#4682b4" stroke="#4682b4" d="M0.004259271713866447 -24 L0 -24 L0 -24 L0.004259271713866475 -24 L0.01674682452694519 -24 L0.03661165235168161 -24 L0.06250000000000007 -24 L0.09264761936218498 -24 L0.12500000000000006 -24 L24.125 -24 L24.157352380637814 -24 L24.1875 -24 L24.21338834764832 -24 L24.233253175473056 -24 L24.245740728286133 -24 L24.25 -24 L24.25 -24 L24.245740728286133 -24 L20.245740728286133 -24 L20.233253175473056 -24 L20.21338834764832 -24 L0.2133883476483184 -24 L0.18749999999999997 -24 L0.1573523806378151 -24 L0.125 -24 L0.0926476193621847 -24 L0.06249999999999985 -24 L0.03661165235168147 -24 L0.01674682452694512 -24 z"/>
<path fill="#4682b4" stroke="#4682b4" d="M0 -24.75 L0.004259271713866447 -24.75 L0.01674682452694512 -24.75 L0.03661165235168147 -24.75 L0.06249999999999985 -24.75 L0.0926476193621847 -24.75 L0.125 -24.75 L0.1573523806378151 -24.75 L0.18749999999999997 -24.75 L0.2133883476483184 -24.75 L20.21338834764832 -24.75 L20.233253175473056 -24.75 L20.245740728286133 -24.75 L24.245740728286133 -24.75 L24.25 -24.75 L24.25 -24.75 L24.245740728286133 -24.75 L24.233253175473056 -24.75 L24.21338834764832 -24.75 L24.1875 -24.75 L24.157352380637814 -24.75 L24.125 -24.75 L0.12500000000000006 -24.75 L0.09264761936218498 -24.75 L0.06250000000000007 -24.75 L0.03661165235168161 -24.75 L0.01674682452694519 -24.75 L0.004259271713866475 -24.75 L0 -24.75 z"/>
<path fill="#4682b4" stroke="#4682b4" d="M27.85415394013439 -24.75 L27.89834578475301 -24.75 L27.983949709602793 -24.75 L27.984728161270613 -24.75 L27.984728161270613 -24 L27.983949709602793 -24 L27.9808877430019 -24 L27.977727308048625 -24 L27.97334704306034 -24 L27.932498472816125 -24 L27.888973732437385 -24 L27.856714218980198 -24 L27.85415394013439 -24 z"/>
<path fill="#4682b4" stroke="#4682b4" d="M29.84102015882712 -24 L29.928069639584603 -24 L29.954184483811847 -24 L29.954184483811847 -24.75 L29.911993951912862 -24.75 L29.823610262675622 -24.75 L29.823610262675622 -24 L29.82489040209853 -24 L29.827450680944334 -24 z"/>
<path fill="#4682b4" stroke="#4682b4" d="M24.0371216194615 -24 L24.035876667322928 -24 L23.95643241769 -24 L23.94135613927917 -24 L23.91524129505192 -24 L23.91524129505192 -24.75 L24.035876667322928 -24.75 L24.037670313485357 -24.75 L24.039267723302537 -24.75 L24.040561690946518 -24.75 L24.04146380041486 -24.75 L24.041910495765332 -24.75 L24.045815516188146 -24.75 L24.045815516188146 -24 L24.041975097919433 -24 L24.041910495765332 -24 L24.041832573998555 -24 L24.04146380041486 -24 L24.041291865879444 -24 L24.040561690946518 -24 L24.04027526398721 -24 L24.039267723302537 -24 L24.038849823444437 -24 L24.037670313485357 -24 z"/>
<path fill="#4682b4" stroke="#4682b4" d="M26.01240309274001 -24 L26.012584146625258 -24 L26.014943166543418 -24 L26.01496288490668 -24 L26.01527183872938 -24 L26.01527183872938 -24.75 L26.01496288490668 -24.75 L26.012584146625258 -24.75 L26.00991318846286 -24.75 L25.884697617593154 -24.75 L25.884697617593154 -24 L25.888538035861867 -24 L25.936927306047647 -24 L25.967079862869312 -24 L26.00991318846286 -24 z"/>
<path fill="#4682b4" stroke="#4682b4" d="M26.015271838729376 -24 L25.551572198242262 -24 L25.217773277214203 -24 L25.06696537004361 -24 L24.10374070214524 -24 L24.045815516188146 -24 L24.045815516188146 -24.75 L25.06696537004361 -24.75 L25.217773277214203 -24.75 L25.551572198242262 -24.75 L26.015271838729376 -24.75 z"/>
<path fill="#4682b4" stroke="#4682b4" d="M28.31945743685687 -24 L28.04265334722771 -24 L27.98472816127061 -24 L27.98472816127061 -24.75 L28.31945743685687 -24.75 L29.954184483811847 -24.75 L29.954184483811847 -24 z"/>
<path fill="#4682b4" stroke="#4682b4" d="M25.884697617593154 -24.75 L23.91524129505192 -24.75 L23.91524129505192 -24 L23.973166481009013 -24 L25.884697617593154 -24 z"/>
<path fill="#4682b4" stroke="#4682b4" d="M29.823610262675626 -24.75 L27.85415394013439 -24.75 L27.85415394013439 -24 L27.91207912609148 -24 L29.823610262675626 -24 z"/>
<path fill="#4682b4" stroke="#4682b4" d="M20.004259271713863 -24.75 L19.999999999999996 -24.75 L19.999999999999996 -24 L20.004259271713863 -24 z"/>
<path fill="#4682b4" stroke="#4682b4" d="M20.01674682452694 -24.75 L20.004259271713863 -24.75 L20.004259271713863 -24 L20.01674682452694 -24 z"/>
<path fill="#4682b4" stroke="#4682b4" d="M20.036611652351674 -24.75 L20.01674682452694 -24.75 L20.01674682452694 -24 L20.036611652351674 -24 z"/>
<path fill="#4682b4" stroke="#4682b4" d="M20.062499999999996 -24.75 L20.036611652351674 -24.75 L20.036611652351674 -24 L20.062499999999996 -24 z"/>
<path fill="#4682b4" stroke="#4682b4" d="M20.092647619362182 -24.75 L20.062499999999996 -24.75 L20.062499999999996 -24 L20.092647619362182 -24 z"/>
<path fill="#4682b4" stroke="#4682b4" d="M20.124999999999996 -24.75 L20.092647619362182 -24.75 L20.092647619362182 -24 L20.124999999999996 -24 z"/>
<path fill="#4682b4" stroke="#4682b4" d="M20.15735238063781 -24.75 L20.124999999999996 -24.75 L20.124999999999996 -24 L20.15735238063781 -24 z"/>
<path fill="#4682b4" stroke="#4682b4" d="M32.15735238063781 -24.75 L20.15735238063781 -24.75 L20.15735238063781 -24 L32.15735238063781 -24 z"/>
<path fill="#4682b4" stroke="#4682b4" d="M32.18749999999999 -24.75 L32.15735238063781 -24.75 L32.15735238063781 -24 L32.18749999999999 -24 z"/>
<path fill="#4682b4" stroke="#4682b4" d="M32.21338834764831 -24.75 L32.18749999999999 -24.75 L32.18749999999999 -24 L32.21338834764831 -24 z"/>
<path fill="#4682b4" stroke="#4682b4" d="M32.23325317547305 -24.75 L32.21338834764832 -24.75 L32.21338834764832 -24 L32.23325317547305 -24 z"/>
<path fill="#4682b4" stroke="#4682b4" d="M32.24574072828614 -24.75 L32.23325317547305 -24.75 L32.23325317547305 -24 L32.24574072828614 -24 z"/>
<path fill="#4682b4" stroke="#4682b4" d="M32.25 -24.75 L32.24574072828614 -24.75 L32.24574072828614 -24 L32.25 -24 z"/>
<path fill="#4682b4" stroke="#4682b4" d="M32.25 -24.75 L32.25 -24.75 L32.25 -24 L32.25 -24 z"/>
<path fill="#4682b4" stroke="#4682b4" d="M32.24574072828613 -24.75 L32.24999999999999 -24.75 L32.24999999999999 -24 L32.24574072828613 -24 z"/>
<path fill="#4682b4" stroke="#4682b4" d="M32.233253175473045 -24.75 L32.24574072828613 -24.75 L32.24574072828613 -24 L32.233253175473045 -24 z"/>
<path fill="#4682b4" stroke="#4682b4" d="M32.21338834764831 -24.75 L32.233253175473045 -24.75 L32.233253175473045 -24 L32.21338834764831 -24 z"/>
<path fill="#4682b4" stroke="#4682b4" d="M32.18749999999999 -24.75 L32.21338834764831 -24.75 L32.21338834764831 -24 L32.18749999999999 -24 z"/>
<path fill="#4682b4" stroke="#4682b4" d="M32.15735238063781 -24.75 L32.18749999999999 -24.75 L32.18749999999999 -24 L32.15735238063781 -24 z"/>
<path fill="#4682b4" stroke="#4682b4" d="M32.12499999999999 -24.75 L32.15735238063781 -24.75 L32.15735238063781 -24 L32.12499999999999 -24 z"/>
<path fill="#4682b4" stroke="#4682b4" d="M32.09264761936218 -24.75 L32.12499999999999 -24.75 L32.12499999999999 -24 L32.09264761936218 -24 z"/>
<path fill="#4682b4" stroke="#4682b4" d="M32.06249999999999 -24.75 L32.092647619362175 -24.75 L32.092647619362175 -24 L32.06249999999999 -24 z"/>
<path fill="#4682b4" stroke="#4682b4" d="M20.062499999999996 -24.75 L32.0625 -24.75 L32.0625 -24 L20.062499999999996 -24 z"/>
<path fill="#4682b4" stroke="#4682b4" d="M20.036611652351674 -24.75 L20.062499999999996 -24.75 L20.062499999999996 -24 L20.036611652351674 -24 z"/>
<path fill="#4682b4" stroke="#4682b4" d="M20.016746824526948 -24.75 L20.03661165235168 -24.75 L20.03661165235168 -24 L20.016746824526948 -24 z"/>
<path fill="#4682b4" stroke="#4682b4" d="M20.004259271713867 -24.75 L20.016746824526944 -24.75 L20.016746824526944 -24 L20.004259271713867 -24 z"/>
<path fill="#4682b4" stroke="#4682b4" d="M20 -24.75 L20.004259271713867 -24.75 L20.004259271713867 -24 L20 -24 z"/>
<path fill="#4682b4" stroke="#4682b4" d="M32.25 -24 L32.25 -24 L32.24574072828614 -24 L32.23325317547305 -24 L32.21338834764832 -24 L32.1875 -24 L32.15735238063782 -24 L20.157352380637814 -24 L20.125 -24 L20.092647619362186 -24 L20.0625 -24 L20.03661165235168 -24 L20.016746824526944 -24 L20.004259271713867 -24 L20 -24 L20.004259271713867 -24 L20.016746824526944 -24 L20.03661165235168 -24 L20.0625 -24 L32.0625 -24 L32.09264761936218 -24 L32.125 -24 L32.15735238063782 -24 L32.1875 -24 L32.21338834764832 -24 L32.23325317547305 -24 L32.24574072828614 -24 M25.936927306047647 -24 L25.88853803586187 -24 L25.884697617593158 -24 L23.973166481009017 -24 L23.915241295051924 -24 L23.94135613927917 -24 L23.95643241769 -24 L24.03587666732293 -24 L24.0371216194615 -24 L24.037670313485357 -24 L24.038849823444437 -24 L24.039267723302537 -24 L24.04027526398721 -24 L24.040561690946518 -24 L24.041291865879444 -24 L24.04146380041486 -24 L24.041832573998555 -24 L24.041910495765332 -24 L24.041975097919433 -24 L24.045815516188146 -24 L24.10374070214524 -24 L25.066965370043615 -24 L25.217773277214206 -24 L25.551572198242265 -24 L26.01527183872938 -24 L26.01496288490668 -24 L26.014943166543418 -24 L26.012584146625258 -24 L26.01240309274001 -24 L26.00991318846286 -24 L25.967079862869316 -24 z"/>
<path fill="#4682b4" stroke="#4682b4" d="M32.25 -24.75 L32.25 -24.75 L32.24574072828614 -24.75 L32.23325317547305 -24.75 L32.21338834764832 -24.75 L32.1875 -24.75 L32.15735238063782 -24.75 L32.125 -24.75 L32.09264761936218 -24.75 L32.0625 -24.75 L20.0625 -24.75 L20.03661165235168 -24.75 L20.016746824526944 -24.75 L20.004259271713867 -24.75 L20 -24.75 L20.004259271713867 -24.75 L20.016746824526944 -24.75 L20.03661165235168 -24.75 L20.0625 -24.75 L20.092647619362186 -24.75 L20.125 -24.75 L20.157352380637814 -24.75 L32.15735238063782 -24.75 L32.1875 -24.75 L32.21338834764832 -24.75 L32.23325317547305 -24.75 L32.24574072828614 -24.75 M23.915241295051924 -24.75 L25.884697617593158 -24.75 L26.00991318846286 -24.75 L26.012584146625258 -24.75 L26.01496288490668 -24.75 L26.01527183872938 -24.75 L25.551572198242265 -24.75 L25.217773277214206 -24.75 L25.066965370043615 -24.75 L24.045815516188146 -24.75 L24.041910495765332 -24.75 L24.04146380041486 -24.75 L24.040561690946518 -24.75 L24.039267723302537 -24.75 L24.037670313485357 -24.75 L24.03587666732293 -24.75 z"/>
<path fill="#4682b4" stroke="#4682b4" d="M0.00425927171386585 -24 L0.00425927171386585 -24.75 L-1.080192734674341e-15 -24.75 L-1.080192734674341e-15 -24 z"/>
<path fill="#4682b4" stroke="#4682b4" d="M0.016746824526942757 -24 L0.016746824526942757 -24.75 L0.004259271713862667 -24.75 L0.004259271713862667 -24 z"/>
<path fill="#4682b4" stroke="#4682b4" d="M0.036611652351678306 -24 L0.036611652351678306 -24.75 L0.0167468245269397 -24.75 L0.0167468245269397 -24 z"/>
<path fill="#4682b4" stroke="#4682b4" d="M0.06249999999999984 -24 L0.06249999999999984 -24.75 L0.03661165235168146 -24.75 L0.03661165235168146 -24 z"/>
<path fill="#4682b4" stroke="#4682b4" d="M0.09264761936218469 -24 L0.09264761936218469 -24.75 L0.06249999999999984 -24.75 L0.06249999999999984 -24 z"/>
<path fill="#4682b4" stroke="#4682b4" d="M0.12499999999999999 -24 L0.12499999999999999 -24.75 L0.0926476193621847 -24.75 L0.0926476193621847 -24 z"/>
<path fill="#4682b4" stroke="#4682b4" d="M17.624999999999996 -24 L17.624999999999996 -24.75 L0.12499999999999999 -24.75 L0.12499999999999999 -24 z"/>
<path fill="#4682b4" stroke="#4682b4" d="M17.65735238063781 -24 L17.65735238063781 -24.75 L17.624999999999996 -24.75 L17.624999999999996 -24 z"/>
<path fill="#4682b4" stroke="#4682b4" d="M17.687499999999996 -24 L17.687499999999996 -24.75 L17.65735238063781 -24.75 L17.65735238063781 -24 z"/>
<path fill="#4682b4" stroke="#4682b4" d="M17.713388347648316 -24 L17.713388347648316 -24.75 L17.687499999999996 -24.75 L17.687499999999996 -24 z"/>
<path fill="#4682b4" stroke="#4682b4" d="M17.733253175473056 -24 L17.733253175473056 -24.75 L17.713388347648323 -24.75 L17.713388347648323 -24 z"/>
<path fill="#4682b4" stroke="#4682b4" d="M17.745740728286133 -24 L17.745740728286133 -24.75 L17.733253175473056 -24.75 L17.733253175473056 -24 z"/>
<path fill="#4682b4" stroke="#4682b4" d="M17.75 -24 L17.75 -24.75 L17.745740728286133 -24.75 L17.745740728286133 -24 z"/>
<path fill="#4682b4" stroke="#4682b4" d="M20.25 -24 L20.25 -24.75 L17.75 -24.75 L17.75 -24 z"/>
<path fill="#4682b4" stroke="#4682b4" d="M20.24574072828613 -24 L20.24574072828613 -24.75 L20.249999999999996 -24.75 L20.249999999999996 -24 z"/>
<path fill="#4682b4" stroke="#4682b4" d="M20.233253175473052 -24 L20.233253175473052 -24.75 L20.24574072828613 -24.75 L20.24574072828613 -24 z"/>
<path fill="#4682b4" stroke="#4682b4" d="M20.213388347648316 -24 L20.213388347648316 -24.75 L20.23325317547305 -24.75 L20.23325317547305 -24 z"/>
<path fill="#4682b4" stroke="#4682b4" d="M20.187499999999996 -24 L20.187499999999996 -24.75 L20.213388347648316 -24.75 L20.213388347648316 -24 z"/>
<path fill="#4682b4" stroke="#4682b4" d="M20.15735238063781 -24 L20.15735238063781 -24.75 L20.187499999999996 -24.75 L20.187499999999996 -24 z"/>
<path fill="#4682b4" stroke="#4682b4" d="M20.124999999999996 -24 L20.124999999999996 -24.75 L20.15735238063781 -24.75 L20.15735238063781 -24 z"/>
<path fill="#4682b4" stroke="#4682b4" d="M20.092647619362182 -24 L20.092647619362182 -24.75 L20.124999999999996 -24.75 L20.124999999999996 -24 z"/>
<path fill="#4682b4" stroke="#4682b4" d="M20.062499999999996 -24 L20.062499999999996 -24.75 L20.092647619362182 -24.75 L20.092647619362182 -24 z"/>
<path fill="#4682b4" stroke="#4682b4" d="M20.036611652351674 -24 L20.036611652351674 -24.75 L20.062499999999996 -24.75 L20.062499999999996 -24 z"/>
<path fill="#4682b4" stroke="#4682b4" d="M0.0366116523516816 -24 L0.0366116523516816 -24.75 L20.036611652351677 -24.75 L20.036611652351677 -24 z"/>
<path fill="#4682b4" stroke="#4682b4" d="M0.01674682452694693 -24 L0.01674682452694693 -24.75 L0.036611652351685606 -24.75 L0.036611652351685606 -24 z"/>
<path fill="#4682b4" stroke="#4682b4" d="M0.004259271713868383 -24 L0.004259271713868383 -24.75 L0.016746824526948517 -24.75 L0.016746824526948517 -24 z"/>
<path fill="#4682b4" stroke="#4682b4" d="M1.0801927346743482e-15 -24 L1.0801927346743482e-15 -24.75 L0.004259271713866586 -24.75 L0.004259271713866586 -24 z"/>
<path fill="#4682b4" stroke="#4682b4" d="M0.004259271713866447 -24 L0 -24 L0.004259271713866475 -24 L0.01674682452694519 -24 L0.03661165235168161 -24 L20.03661165235168 -24 L20.0625 -24 L20.092647619362186 -24 L20.125 -24 L20.157352380637814 -24 L20.1875 -24 L20.21338834764832 -24 L20.233253175473056 -24 L20.245740728286133 -24 L20.25 -24 L17.75 -24 L17.745740728286133 -24 L17.733253175473056 -24 L17.71338834764832 -24 L17.6875 -24 L17.657352380637814 -24 L17.625 -24 L0.125 -24 L0.0926476193621847 -24 L0.06249999999999985 -24 L0.03661165235168147 -24 L0.01674682452694512 -24 z"/>
<path fill="#4682b4" stroke="#4682b4" d="M0.004259271713866447 -24.75 L0.01674682452694512 -24.75 L0.03661165235168147 -24.75 L0.06249999999999985 -24.75 L0.0926476193621847 -24.75 L0.125 -24.75 L17.625 -24.75 L17.657352380637814 -24.75 L17.6875 -24.75 L17.71338834764832 -24.75 L17.733253175473056 -24.75 L17.745740728286133 -24.75 L17.75 -24.75 L20.25 -24.75 L20.245740728286133 -24.75 L20.233253175473056 -24.75 L20.21338834764832 -24.75 L20.1875 -24.75 L20.157352380637814 -24.75 L20.125 -24.75 L20.092647619362186 -24.75 L20.0625 -24.75 L20.03661165235168 -24.75 L0.03661165235168161 -24.75 L0.01674682452694519 -24.75 L0.004259271713866475 -24.75 L0 -24.75 z"/>
<path fill="#4682b4" stroke="#4682b4" d="M20.004259271713863 -24.75 L19.999999999999996 -24.75 L19.999999999999996 -24 L20.004259271713863 -24 z"/>
<path fill="#4682b4" stroke="#4682b4" d="M20.01674682452694 -24.75 L20.004259271713863 -24.75 L20.004259271713863 -24 L20.01674682452694 -24 z"/>
<path fill="#4682b4" stroke="#4682b4" d="M20.036611652351674 -24.75 L20.01674682452694 -24.75 L20.01674682452694 -24 L20.036611652351674 -24 z"/>
<path fill="#4682b4" stroke="#4682b4" d="M20.062499999999996 -24.75 L20.036611652351674 -24.75 L20.036611652351674 -24 L20.062499999999996 -24 z"/>
<path fill="#4682b4" stroke="#4682b4" d="M20.092647619362182 -24.75 L20.062499999999996 -24.75 L20.062499999999996 -24 L20.092647619362182 -24 z"/>
<path fill="#4682b4" stroke="#4682b4" d="M20.124999999999996 -24.75 L20.092647619362182 -24.75 L20.092647619362182 -24 L20.124999999999996 -24 z"/>
<path fill="#4682b4" stroke="#4682b4" d="M20.15735238063781 -24.75 L20.124999999999996 -24.75 L20.124999999999996 -24 L20.15735238063781 -24 z"/>
<path fill="#4682b4" stroke="#4682b4" d="M20.187499999999996 -24.75 L20.15735238063781 -24.75 L20.15735238063781 -24 L20.187499999999996 -24 z"/>
<path fill="#4682b4" stroke="#4682b4" d="M32.18749999999999 -24.75 L20.187499999999996 -24.75 L20.187499999999996 -24 L32.18749999999999 -24 z"/>
<path fill="#4682b4" stroke="#4682b4" d="M32.21338834764831 -24.75 L32.18749999999999 -24.75 L32.18749999999999 -24 L32.21338834764831 -24 z"/>
<path fill="#4682b4" stroke="#4682b4" d="M32.23325317547305 -24.75 L32.21338834764832 -24.75 L32.21338834764832 -24 L32.23325317547305 -24 z"/>
<path fill="#4682b4" stroke="#4682b4" d="M32.24574072828614 -24.75 L32.23325317547305 -24.75 L32.23325317547305 -24 L32.24574072828614 -24 z"/>
<path fill="#4682b4" stroke="#4682b4" d="M32.25 -24.75 L32.24574072828614 -24.75 L32.24574072828614 -24 L32.25 -24 z"/>
<path fill="#4682b4" stroke="#4682b4" d="M32.24574072828613 -24.75 L32.24999999999999 -24.75 L32.24999999999999 -24 L32.24574072828613 -24 z"/>
<path fill="#4682b4" stroke="#4682b4" d="M32.233253175473045 -24.75 L32.24574072828613 -24.75 L32.24574072828613 -24 L32.233253175473045 -24 z"/>
<path fill="#4682b4" stroke="#4682b4" d="M32.21338834764831 -24.75 L32.233253175473045 -24.75 L32.233253175473045 -24 L32.21338834764831 -24 z"/>
<path fill="#4682b4" stroke="#4682b4" d="M24.213388347648316 -24.75 L32.21338834764832 -24.75 L32.21338834764832 -24 L24.213388347648316 -24 z"/>
<path fill="#4682b4" stroke="#4682b4" d="M24.187499999999996 -24.75 L24.213388347648316 -24.75 L24.213388347648316 -24 L24.187499999999996 -24 z"/>
<path fill="#4682b4" stroke="#4682b4" d="M24.15735238063781 -24.75 L24.187499999999996 -24.75 L24.187499999999996 -24 L24.15735238063781 -24 z"/>
<path fill="#4682b4" stroke="#4682b4" d="M24.124999999999996 -24.75 L24.15735238063781 -24.75 L24.15735238063781 -24 L24.124999999999996 -24 z"/>
<path fill="#4682b4" stroke="#4682b4" d="M24.092647619362182 -24.75 L24.124999999999996 -24.75 L24.124999999999996 -24 L24.092647619362182 -24 z"/>
<path fill="#4682b4" stroke="#4682b4" d="M24.062499999999993 -24.75 L24.092647619362182 -24.75 L24.092647619362182 -24 L24.062499999999993 -24 z"/>
<path fill="#4682b4" stroke="#4682b4" d="M24.036611652351677 -24.75 L24.062499999999993 -24.75 L24.062499999999993 -24 L24.036611652351677 -24 z"/>
<path fill="#4682b4" stroke="#4682b4" d="M24.016746824526944 -24.75 L24.03661165235168 -24.75 L24.03661165235168 -24 L24.016746824526944 -24 z"/>
<path fill="#4682b4" stroke="#4682b4" d="M24.004259271713867 -24.75 L24.016746824526944 -24.75 L24.016746824526944 -24 L24.004259271713867 -24 z"/>
<path fill="#4682b4" stroke="#4682b4" d="M20.004259271713867 -24.75 L24.004259271713867 -24.75 L24.004259271713867 -24 L20.004259271713867 -24 z"/>
<path fill="#4682b4" stroke="#4682b4" d="M20 -24.75 L20.004259271713867 -24.75 L20.004259271713867 -24 L20 -24 z"/>
<path fill="#4682b4" stroke="#4682b4" d="M20.016746824526944 -24 L20.004259271713867 -24 L20 -24 L20.004259271713867 -24 L24.004259271713867 -24 L24.016746824526944 -24 L24.03661165235168 -24 L24.0625 -24 L24.092647619362186 -24 L24.125 -24 L24.157352380637814 -24 L24.1875 -24 L24.21338834764832 -24 L32.21338834764832 -24 L32.23325317547305 -24 L32.24574072828614 -24 L32.25 -24 L32.24574072828614 -24 L32.23325317547305 -24 L32.21338834764832 -24 L32.1875 -24 L20.1875 -24 L20.157352380637814 -24 L20.125 -24 L20.092647619362186 -24 L20.0625 -24 L20.03661165235168 -24 z"/>
<path fill="#4682b4" stroke="#4682b4" d="M20.004259271713867 -24.75 L20.016746824526944 -24.75 L20.03661165235168 -24.75 L20.0625 -24.75 L20.092647619362186 -24.75 L20.125 -24.75 L20.157352380637814 -24.75 L20.1875 -24.75 L32.1875 -24.75 L32.21338834764832 -24.75 L32.23325317547305 -24.75 L32.24574072828614 -24.75 L32.25 -24.75 L32.24574072828614 -24.75 L32.23325317547305 -24.75 L32.21338834764832 -24.75 L24.21338834764832 -24.75 L24.1875 -24.75 L24.157352380637814 -24.75 L24.125 -24.75 L24.092647619362186 -24.75 L24.0625 -24.75 L24.03661165235168 -24.75 L24.016746824526944 -24.75 L24.004259271713867 -24.75 L20.004259271713867 -24.75 L20 -24.75 z"/>
<path fill="#b0e0e6" stroke="#b0e0e6" d="M22.076359193646912 0 L21.945784972510687 0 L31.79306658521686 0 L31.923640806353085 0 z"/>
<path fill="#b0e0e6" stroke="#b0e0e6" d="M22.076359193646912 -24 L21.945784972510687 -24 L21.945784972510687 0 L22.076359193646912 0 z"/>
<path fill="#b0e0e6" stroke="#b0e0e6" d="M31.923640806353085 -24 L31.79306658521686 -24 L21.945784972510687 -24 L22.076359193646912 -24 z"/>
<path fill="#b0e0e6" stroke="#b0e0e6" d="M31.92364080635308 0 L31.79306658521686 0 L31.79306658521686 -24 L31.92364080635308 -24 z"/>
<path fill="#b0e0e6" stroke="#b0e0e6" d="M22.076359193646912 0 L31.92364080635308 0 L31.92364080635308 -24 L22.076359193646912 -24 z"/>
<path fill="#b0e0e6" stroke="#b0e0e6" d="M21.945784972510687 0 L21.945784972510687 -24 L31.793066585216856 -24 L31.793066585216856 0 z"/>
<path fill="#b0e0e6" stroke="#b0e0e6" d="M24.045815516188146 0.75 L23.915241295051924 0.75 L25.884697617593158 0.75 L26.01527183872938 0.75 z"/>
<path fill="#b0e0e6" stroke="#b0e0e6" d="M24.045815516188146 -24.75 L23.91524129505192 -24.75 L23.91524129505192 0.75 L24.045815516188146 0.75 z"/>
<path fill="#b0e0e6" stroke="#b0e0e6" d="M26.01527183872938 -24.75 L25.884697617593158 -24.75 L23.915241295051924 -24.75 L24.045815516188146 -24.75 z"/>
<path fill="#b0e0e6" stroke="#b0e0e6" d="M26.01527183872938 0.75 L25.884697617593154 0.75 L25.884697617593154 -24.75 L26.01527183872938 -24.75 z"/>
<path fill="#b0e0e6" stroke="#b0e0e6" d="M24.045815516188146 0.75 L26.01527183872938 0.75 L26.01527183872938 -24.75 L24.045815516188146 -24.75 z"/>
<path fill="#b0e0e6" stroke="#b0e0e6" d="M23.91524129505192 0.75 L23.91524129505192 -24.75 L25.884697617593154 -24.75 L25.884697617593154 0.75 z"/>
<path fill="#b0e0e6" stroke="#b0e0e6" d="M27.984728161270617 0.75 L27.854153940134392 0.75 L29.823610262675626 0.75 L29.95418448381185 0.75 z"/>
<path fill="#b0e0e6" stroke="#b0e0e6" d="M27.984728161270613 -24.75 L27.85415394013439 -24.75 L27.85415394013439 0.75 L27.984728161270613 0.75 z"/>
<path fill="#b0e0e6" stroke="#b0e0e6" d="M29.95418448381185 -24.75 L29.823610262675626 -24.75 L27.854153940134392 -24.75 L27.984728161270617 -24.75 z"/>
<path fill="#b0e0e6" stroke="#b0e0e6" d="M29.954184483811847 0.75 L29.823610262675626 0.75 L29.823610262675626 -24.75 L29.954184483811847 -24.75 z"/>
<path fill="#b0e0e6" stroke="#b0e0e6" d="M27.984728161270613 0.75 L29.954184483811844 0.75 L29.954184483811844 -24.75 L27.984728161270613 -24.75 z"/>
<path fill="#b0e0e6" stroke="#b0e0e6" d="M27.85415394013439 0.75 L27.85415394013439 -24.75 L29.82361026267562 -24.75 L29.82361026267562 0.75 z"/>
</svg>