<?xml version="1.0" encoding="UTF-8"?>
<!-- Generated by jsxcad -->
<!DOCTYPE svg PUBLIC "-//W3C//DTD SVG 1.1 Tiny//EN" "http://www.w3.org/Graphics/SVG/1.1/DTD/svg11-tiny.dtd">
<svg baseProfile="tiny" height="24.750000000000004mm" width="32.25000000000003mm" viewBox="-8.326672684688675e-17 -0.7500000000000003 32.25000000000003 24.750000000000004" version="1.1" stroke="black" stroke-width=".1" fill="none" xmlns="http://www.w3.org/2000/svg">
<path fill="#4682b4" stroke="#4682b4" d="M0.00425927171386585 0.75 L0.00425927171386585 0 L-1.080192734674341e-15 0 L-1.080192734674341e-15 0.75 z"/>
<path fill="#4682b4" stroke="#4682b4" d="M0.016746824526942757 0.75 L0.016746824526942757 0 L0.004259271713862667 0 L0.004259271713862667 0.75 z"/>
<path fill="#4682b4" stroke="#4682b4" d="M0.036611652351678306 0.75 L0.036611652351678306 0 L0.0167468245269397 0 L0.0167468245269397 0.75 z"/>
<path fill="#4682b4" stroke="#4682b4" d="M9.786611652351677 0.75 L9.786611652351677 0 L0.03661165235168075 0 L0.03661165235168075 0.75 z"/>
<path fill="#4682b4" stroke="#4682b4" d="M9.812499999999998 0.75 L9.812499999999998 0 L9.786611652351679 0 L9.786611652351679 0.75 z"/>
<path fill="#4682b4" stroke="#4682b4" d="M9.842647619362182 0.75 L9.842647619362182 0 L9.812499999999998 0 L9.812499999999998 0.75 z"/>
<path fill="#4682b4" stroke="#4682b4" d="M9.874999999999998 0.75 L9.874999999999998 0 L9.842647619362182 0 L9.842647619362182 0.75 z"/>
<path fill="#4682b4" stroke="#4682b4" d="M23.125 0.7499999999999999 L23.125 0 L9.875 0 L9.875 0.7499999999999999 z"/>
<path fill="#4682b4" stroke="#4682b4" d="M23.15735238063781 0.75 L23.15735238063781 0 L23.124999999999996 0 L23.124999999999996 0.75 z"/>
<path fill="#4682b4" stroke="#4682b4" d="M23.187499999999996 0.75 L23.187499999999996 0 L23.157352380637807 0 L23.157352380637807 0.75 z"/>
<path fill="#4682b4" stroke="#4682b4" d="M23.213388347648316 0.75 L23.213388347648316 0 L23.187499999999996 0 L23.187499999999996 0.75 z"/>
<path fill="#4682b4" stroke="#4682b4" d="M23.23325317547306 0.75 L23.23325317547306 0 L23.213388347648323 0 L23.213388347648323 0.75 z"/>
<path fill="#4682b4" stroke="#4682b4" d="M23.245740728286133 0.75 L23.245740728286133 0 L23.233253175473056 0 L23.233253175473056 0.75 z"/>
<path fill="#4682b4" stroke="#4682b4" d="M23.25 0.75 L23.25 0 L23.245740728286133 0 L23.245740728286133 0.75 z"/>
<path fill="#4682b4" stroke="#4682b4" d="M23.25 0.75 L23.25 0 L23.25 0 L23.25 0.75 z"/>
<path fill="#4682b4" stroke="#4682b4" d="M23.24574072828613 0.75 L23.24574072828613 0 L23.249999999999996 0 L23.249999999999996 0.75 z"/>
<path fill="#4682b4" stroke="#4682b4" d="M23.233253175473052 0.75 L23.233253175473052 0 L23.24574072828613 0 L23.24574072828613 0.75 z"/>
<path fill="#4682b4" stroke="#4682b4" d="M23.213388347648316 0.75 L23.213388347648316 0 L23.23325317547305 0 L23.23325317547305 0.75 z"/>
<path fill="#4682b4" stroke="#4682b4" d="M23.187499999999996 0.75 L23.187499999999996 0 L23.213388347648316 0 L23.213388347648316 0.75 z"/>
<path fill="#4682b4" stroke="#4682b4" d="M17.687499999999996 0.75 L17.687499999999996 0 L23.187499999999996 0 L23.187499999999996 0.75 z"/>
<path fill="#4682b4" stroke="#4682b4" d="M17.65735238063781 0.75 L17.65735238063781 0 L17.687499999999996 0 L17.687499999999996 0.75 z"/>
<path fill="#4682b4" stroke="#4682b4" d="M17.624999999999996 0.75 L17.624999999999996 0 L17.65735238063781 0 L17.65735238063781 0.75 z"/>
<path fill="#4682b4" stroke="#4682b4" d="M0.12500000000000006 0.75 L0.12500000000000006 0 L17.624999999999996 0 L17.624999999999996 0.75 z"/>
<path fill="#4682b4" stroke="#4682b4" d="M0.09264761936218496 0.75 L0.09264761936218496 0 L0.12500000000000006 0 L0.12500000000000006 0.75 z"/>
<path fill="#4682b4" stroke="#4682b4" d="M0.06250000000000006 0.75 L0.06250000000000006 0 L0.09264761936218495 0 L0.09264761936218495 0.75 z"/>
<path fill="#4682b4" stroke="#4682b4" d="M0.0366116523516816 0.75 L0.0366116523516816 0 L0.06250000000000006 0 L0.06250000000000006 0.75 z"/>
<path fill="#4682b4" stroke="#4682b4" d="M0.01674682452694693 0.75 L0.01674682452694693 0 L0.036611652351685606 0 L0.036611652351685606 0.75 z"/>
<path fill="#4682b4" stroke="#4682b4" d="M0.004259271713868383 0.75 L0.004259271713868383 0 L0.016746824526948517 0 L0.016746824526948517 0.75 z"/>
<path fill="#4682b4" stroke="#4682b4" d="M1.0801927346743482e-15 0.75 L1.0801927346743482e-15 0 L0.004259271713866586 0 L0.004259271713866586 0.75 z"/>
<path fill="#4682b4" stroke="#4682b4" d="M0.004259271713866447 0.75 L0 0.75 L0.004259271713866475 0.75 L0.01674682452694519 0.75 L0.03661165235168161 0.75 L0.06250000000000007 0.75 L0.09264761936218498 0.75 L0.12500000000000006 0.75 L17.625 0.75 L17.657352380637814 0.75 L17.6875 0.75 L23.1875 0.75 L23.21338834764832 0.75 L23.233253175473056 0.75 L23.245740728286133 0.75 L23.25 0.75 L23.25 0.75 L23.245740728286133 0.75 L23.233253175473056 0.75 L23.21338834764832 0.75 L23.1875 0.75 L23.157352380637814 0.75 L23.125 0.75 L9.875 0.75 L9.842647619362184 0.75 L9.8125 0.75 L9.78661165235168 0.75 L0.03661165235168147 0.75 L0.01674682452694512 0.75 z"/>
<path fill="#4682b4" stroke="#4682b4" d="M0.004259271713866447 0 L0.01674682452694512 0 L0.03661165235168147 0 L9.78661165235168 0 L9.8125 0 L9.842647619362184 0 L9.875 0 L23.125 0 L23.157352380637814 0 L23.1875 0 L23.21338834764832 0 L23.233253175473056 0 L23.245740728286133 0 L23.25 0 L23.25 0 L23.245740728286133 0 L23.233253175473056 0 L23.21338834764832 0 L23.1875 0 L17.6875 0 L17.657352380637814 0 L17.625 0 L0.12500000000000006 0 L0.09264761936218498 0 L0.06250000000000007 0 L0.03661165235168161 0 L0.01674682452694519 0 L0.004259271713866475 0 L0 0 z"/>
<path fill="#4682b4" stroke="#4682b4" d="M0 0.75 L0 0 L0 0 L0 0.75 z"/>
<path fill="#4682b4" stroke="#4682b4" d="M0.00425927171386585 0.75 L0.00425927171386585 0 L-1.080192734674341e-15 0 L-1.080192734674341e-15 0.75 z"/>
<path fill="#4682b4" stroke="#4682b4" d="M0.016746824526942757 0.75 L0.016746824526942757 0 L0.004259271713862667 0 L0.004259271713862667 0.75 z"/>
<path fill="#4682b4" stroke="#4682b4" d="M0.036611652351678306 0.75 L0.036611652351678306 0 L0.0167468245269397 0 L0.0167468245269397 0.75 z"/>
<path fill="#4682b4" stroke="#4682b4" d="M0.06249999999999984 0.75 L0.06249999999999984 0 L0.03661165235168146 0 L0.03661165235168146 0.75 z"/>
<path fill="#4682b4" stroke="#4682b4" d="M0.09264761936218469 0.75 L0.09264761936218469 0 L0.06249999999999984 0 L0.06249999999999984 0.75 z"/>
<path fill="#4682b4" stroke="#4682b4" d="M0.12499999999999999 0.75 L0.12499999999999999 0 L0.0926476193621847 0 L0.0926476193621847 0.75 z"/>
<path fill="#4682b4" stroke="#4682b4" d="M0.15735238063781506 0.75 L0.15735238063781506 0 L0.12499999999999999 0 L0.12499999999999999 0.75 z"/>
<path fill="#4682b4" stroke="#4682b4" d="M0.18749999999999997 0.75 L0.18749999999999997 0 L0.15735238063781506 0 L0.15735238063781506 0.75 z"/>
<path fill="#4682b4" stroke="#4682b4" d="M0.2133883476483184 0.75 L0.2133883476483184 0 L0.18749999999999994 0 L0.18749999999999994 0.75 z"/>
<path fill="#4682b4" stroke="#4682b4" d="M20.213388347648316 0.75 L20.213388347648316 0 L0.21338834764831838 0 L0.21338834764831838 0.75 z"/>
<path fill="#4682b4" stroke="#4682b4" d="M20.233253175473056 0.75 L20.233253175473056 0 L20.213388347648323 0 L20.213388347648323 0.75 z"/>
<path fill="#4682b4" stroke="#4682b4" d="M20.245740728286133 0.75 L20.245740728286133 0 L20.233253175473056 0 L20.233253175473056 0.75 z"/>
<path fill="#4682b4" stroke="#4682b4" d="M24.245740728286133 0.75 L24.245740728286133 0 L20.245740728286133 0 L20.245740728286133 0.75 z"/>
<path fill="#4682b4" stroke="#4682b4" d="M24.25 0.75 L24.25 0 L24.245740728286133 0 L24.245740728286133 0.75 z"/>
<path fill="#4682b4" stroke="#4682b4" d="M24.25 0.75 L24.25 0 L24.25 0 L24.25 0.75 z"/>
<path fill="#4682b4" stroke="#4682b4" d="M24.24574072828613 0.75 L24.24574072828613 0 L24.249999999999996 0 L24.249999999999996 0.75 z"/>
<path fill="#4682b4" stroke="#4682b4" d="M24.233253175473052 0.75 L24.233253175473052 0 L24.24574072828613 0 L24.24574072828613 0.75 z"/>
<path fill="#4682b4" stroke="#4682b4" d="M24.213388347648316 0.75 L24.213388347648316 0 L24.233253175473052 0 L24.233253175473052 0.75 z"/>
<path fill="#4682b4" stroke="#4682b4" d="M24.187499999999996 0.75 L24.187499999999996 0 L24.213388347648316 0 L24.213388347648316 0.75 z"/>
<path fill="#4682b4" stroke="#4682b4" d="M24.15735238063781 0.75 L24.15735238063781 0 L24.187499999999996 0 L24.187499999999996 0.75 z"/>
<path fill="#4682b4" stroke="#4682b4" d="M24.124999999999996 0.75 L24.124999999999996 0 L24.15735238063781 0 L24.15735238063781 0.75 z"/>
<path fill="#4682b4" stroke="#4682b4" d="M0.12500000000000006 0.7499999999999999 L0.12500000000000006 0 L24.125 0 L24.125 0.7499999999999999 z"/>
<path fill="#4682b4" stroke="#4682b4" d="M0.09264761936218496 0.75 L0.09264761936218496 0 L0.12500000000000006 0 L0.12500000000000006 0.75 z"/>
<path fill="#4682b4" stroke="#4682b4" d="M0.06250000000000006 0.75 L0.06250000000000006 0 L0.09264761936218495 0 L0.09264761936218495 0.75 z"/>
<path fill="#4682b4" stroke="#4682b4" d="M0.0366116523516816 0.75 L0.0366116523516816 0 L0.06250000000000006 0 L0.06250000000000006 0.75 z"/>
<path fill="#4682b4" stroke="#4682b4" d="M0.01674682452694519 0.75 L0.01674682452694519 0 L0.03661165235168161 0 L0.03661165235168161 0.75 z"/>
<path fill="#4682b4" stroke="#4682b4" d="M0.004259271713866481 0.75 L0.004259271713866481 0 L0.016746824526945193 0 L0.016746824526945193 0.75 z"/>
<path fill="#4682b4" stroke="#4682b4" d="M2.3844065057114798e-18 0.75 L2.3844065057114798e-18 0 L0.004259271713866475 0 L0.004259271713866475 0.75 z"/>
<path fill="#4682b4" stroke="#4682b4" d="M0 0.75 L0 0.75 L0.004259271713866475 0.75 L0.01674682452694519 0.75 L0.03661165235168161 0.75 L0.06250000000000007 0.75 L0.09264761936218498 0.75 L0.12500000000000006 0.75 L24.125 0.75 L24.157352380637814 0.75 L24.1875 0.75 L24.21338834764832 0.75 L24.233253175473056 0.75 L24.245740728286133 0.75 L24.25 0.75 L24.25 0.75 L24.245740728286133 0.75 L20.245740728286133 0.75 L20.233253175473056 0.75 L20.21338834764832 0.75 L0.2133883476483184 0.75 L0.18749999999999997 0.75 L0.1573523806378151 0.75 L0.125 0.75 L0.0926476193621847 0.75 L0.06249999999999985 0.75 L0.03661165235168147 0.75 L0.01674682452694512 0.75 L0.004259271713866447 0.75 z"/>
<path fill="#4682b4" stroke="#4682b4" d="M0 0 L0.004259271713866447 0 L0.01674682452694512 0 L0.03661165235168147 0 L0.06249999999999985 0 L0.0926476193621847 0 L0.125 0 L0.1573523806378151 0 L0.18749999999999997 0 L0.2133883476483184 0 L20.21338834764832 0 L20.233253175473056 0 L20.245740728286133 0 L24.245740728286133 0 L24.25 0 L24.25 0 L24.245740728286133 0 L24.233253175473056 0 L24.21338834764832 0 L24.1875 0 L24.157352380637814 0 L24.125 0 L0.12500000000000006 0 L0.09264761936218498 0 L0.06250000000000007 0 L0.03661165235168161 0 L0.01674682452694519 0 L0.004259271713866475 0 L0 0 z"/>
<path fill="#4682b4" stroke="#4682b4" d="M20.004259271713863 0.75 L20.004259271713863 0 L19.999999999999996 0 L19.999999999999996 0.75 z"/>
<path fill="#4682b4" stroke="#4682b4" d="M20.01674682452694 0.75 L20.01674682452694 0 L20.004259271713863 0 L20.004259271713863 0.75 z"/>
<path fill="#4682b4" stroke="#4682b4" d="M20.036611652351674 0.75 L20.036611652351674 0 L20.01674682452694 0 L20.01674682452694 0.75 z"/>
<path fill="#4682b4" stroke="#4682b4" d="M20.062499999999996 0.75 L20.062499999999996 0 L20.036611652351674 0 L20.036611652351674 0.75 z"/>
<path fill="#4682b4" stroke="#4682b4" d="M20.092647619362182 0.75 L20.092647619362182 0 L20.062499999999996 0 L20.062499999999996 0.75 z"/>
<path fill="#4682b4" stroke="#4682b4" d="M20.124999999999996 0.75 L20.124999999999996 0 L20.092647619362182 0 L20.092647619362182 0.75 z"/>
<path fill="#4682b4" stroke="#4682b4" d="M20.15735238063781 0.75 L20.15735238063781 0 L20.124999999999996 0 L20.124999999999996 0.75 z"/>
<path fill="#4682b4" stroke="#4682b4" d="M32.15735238063781 0.75 L32.15735238063781 0 L20.15735238063781 0 L20.15735238063781 0.75 z"/>
<path fill="#4682b4" stroke="#4682b4" d="M32.18749999999999 0.75 L32.18749999999999 0 L32.15735238063781 0 L32.15735238063781 0.75 z"/>
<path fill="#4682b4" stroke="#4682b4" d="M32.21338834764831 0.75 L32.21338834764831 0 L32.18749999999999 0 L32.18749999999999 0.75 z"/>
<path fill="#4682b4" stroke="#4682b4" d="M32.23325317547305 0.75 L32.23325317547305 0 L32.21338834764832 0 L32.21338834764832 0.75 z"/>
<path fill="#4682b4" stroke="#4682b4" d="M32.24574072828614 0.75 L32.24574072828614 0 L32.23325317547305 0 L32.23325317547305 0.75 z"/>
<path fill="#4682b4" stroke="#4682b4" d="M32.25 0.75 L32.25 0 L32.24574072828614 0 L32.24574072828614 0.75 z"/>
<path fill="#4682b4" stroke="#4682b4" d="M32.25 0.75 L32.25 0 L32.25 0 L32.25 0.75 z"/>
<path fill="#4682b4" stroke="#4682b4" d="M32.24574072828613 0.75 L32.24574072828613 0 L32.24999999999999 0 L32.24999999999999 0.75 z"/>
<path fill="#4682b4" stroke="#4682b4" d="M32.233253175473045 0.75 L32.233253175473045 0 L32.24574072828613 0 L32.24574072828613 0.75 z"/>
<path fill="#4682b4" stroke="#4682b4" d="M32.21338834764831 0.75 L32.21338834764831 0 L32.233253175473045 0 L32.233253175473045 0.75 z"/>
<path fill="#4682b4" stroke="#4682b4" d="M32.18749999999999 0.75 L32.18749999999999 0 L32.21338834764831 0 L32.21338834764831 0.75 z"/>
<path fill="#4682b4" stroke="#4682b4" d="M32.15735238063781 0.75 L32.15735238063781 0 L32.18749999999999 0 L32.18749999999999 0.75 z"/>
<path fill="#4682b4" stroke="#4682b4" d="M32.12499999999999 0.75 L32.12499999999999 0 L32.15735238063781 0 L32.15735238063781 0.75 z"/>
<path fill="#4682b4" stroke="#4682b4" d="M32.09264761936218 0.75 L32.09264761936218 0 L32.12499999999999 0 L32.12499999999999 0.75 z"/>
<path fill="#4682b4" stroke="#4682b4" d="M32.06249999999999 0.75 L32.06249999999999 0 L32.092647619362175 0 L32.092647619362175 0.75 z"/>
<path fill="#4682b4" stroke="#4682b4" d="M20.062499999999996 0.75 L20.062499999999996 0 L32.0625 0 L32.0625 0.75 z"/>
<path fill="#4682b4" stroke="#4682b4" d="M20.036611652351674 0.75 L20.036611652351674 0 L20.062499999999996 0 L20.062499999999996 0.75 z"/>
<path fill="#4682b4" stroke="#4682b4" d="M20.016746824526948 0.75 L20.016746824526948 0 L20.03661165235168 0 L20.03661165235168 0.75 z"/>
<path fill="#4682b4" stroke="#4682b4" d="M20.004259271713867 0.75 L20.004259271713867 0 L20.016746824526944 0 L20.016746824526944 0.75 z"/>
<path fill="#4682b4" stroke="#4682b4" d="M20 0.75 L20 0 L20.004259271713867 0 L20.004259271713867 0.75 z"/>
<path fill="#4682b4" stroke="#4682b4" d="M20.004259271713867 0.75 L20 0.75 L20.004259271713867 0.75 L20.016746824526944 0.75 L20.03661165235168 0.75 L20.0625 0.75 L32.0625 0.75 L32.09264761936218 0.75 L32.125 0.75 L32.15735238063782 0.75 L32.1875 0.75 L32.21338834764832 0.75 L32.23325317547305 0.75 L32.24574072828614 0.75 L32.25 0.75 L32.25 0.75 L32.24574072828614 0.75 L32.23325317547305 0.75 L32.21338834764832 0.75 L32.1875 0.75 L32.15735238063782 0.75 L20.157352380637814 0.75 L20.125 0.75 L20.092647619362186 0.75 L20.0625 0.75 L20.03661165235168 0.75 L20.016746824526944 0.75 z"/>
<path fill="#4682b4" stroke="#4682b4" d="M20.004259271713867 0 L20.016746824526944 0 L20.03661165235168 0 L20.0625 0 L20.092647619362186 0 L20.125 0 L20.157352380637814 0 L32.15735238063782 0 L32.1875 0 L32.21338834764832 0 L32.23325317547305 0 L32.24574072828614 0 L32.25 0 L32.25 0 L32.24574072828614 0 L32.23325317547305 0 L32.21338834764832 0 L32.1875 0 L32.15735238063782 0 L32.125 0 L32.09264761936218 0 L32.0625 0 L20.0625 0 L20.03661165235168 0 L20.016746824526944 0 L20.004259271713867 0 L20 0 z"/>
<path fill="#4682b4" stroke="#4682b4" d="M0.00425927171386585 0.75 L0.00425927171386585 0 L-1.080192734674341e-15 0 L-1.080192734674341e-15 0.75 z"/>
<path fill="#4682b4" stroke="#4682b4" d="M0.016746824526942757 0.75 L0.016746824526942757 0 L0.004259271713862667 0 L0.004259271713862667 0.75 z"/>
<path fill="#4682b4" stroke="#4682b4" d="M0.036611652351678306 0.75 L0.036611652351678306 0 L0.0167468245269397 0 L0.0167468245269397 0.75 z"/>
<path fill="#4682b4" stroke="#4682b4" d="M0.06249999999999984 0.75 L0.06249999999999984 0 L0.03661165235168146 0 L0.03661165235168146 0.75 z"/>
<path fill="#4682b4" stroke="#4682b4" d="M0.09264761936218469 0.75 L0.09264761936218469 0 L0.06249999999999984 0 L0.06249999999999984 0.75 z"/>
<path fill="#4682b4" stroke="#4682b4" d="M0.12499999999999999 0.75 L0.12499999999999999 0 L0.0926476193621847 0 L0.0926476193621847 0.75 z"/>
<path fill="#4682b4" stroke="#4682b4" d="M17.624999999999996 0.75 L17.624999999999996 0 L0.12499999999999999 0 L0.12499999999999999 0.75 z"/>
<path fill="#4682b4" stroke="#4682b4" d="M17.65735238063781 0.75 L17.65735238063781 0 L17.624999999999996 0 L17.624999999999996 0.75 z"/>
<path fill="#4682b4" stroke="#4682b4" d="M17.687499999999996 0.75 L17.687499999999996 0 L17.65735238063781 0 L17.65735238063781 0.75 z"/>
<path fill="#4682b4" stroke="#4682b4" d="M17.713388347648316 0.75 L17.713388347648316 0 L17.687499999999996 0 L17.687499999999996 0.75 z"/>
<path fill="#4682b4" stroke="#4682b4" d="M17.733253175473056 0.75 L17.733253175473056 0 L17.713388347648323 0 L17.713388347648323 0.75 z"/>
<path fill="#4682b4" stroke="#4682b4" d="M17.745740728286133 0.75 L17.745740728286133 0 L17.733253175473056 0 L17.733253175473056 0.75 z"/>
<path fill="#4682b4" stroke="#4682b4" d="M17.75 0.75 L17.75 0 L17.745740728286133 0 L17.745740728286133 0.75 z"/>
<path fill="#4682b4" stroke="#4682b4" d="M20.25 0.75 L20.25 0 L17.75 0 L17.75 0.75 z"/>
<path fill="#4682b4" stroke="#4682b4" d="M20.24574072828613 0.75 L20.24574072828613 0 L20.249999999999996 0 L20.249999999999996 0.75 z"/>
<path fill="#4682b4" stroke="#4682b4" d="M20.233253175473052 0.75 L20.233253175473052 0 L20.24574072828613 0 L20.24574072828613 0.75 z"/>
<path fill="#4682b4" stroke="#4682b4" d="M20.213388347648316 0.75 L20.213388347648316 0 L20.23325317547305 0 L20.23325317547305 0.75 z"/>
<path fill="#4682b4" stroke="#4682b4" d="M20.187499999999996 0.75 L20.187499999999996 0 L20.213388347648316 0 L20.213388347648316 0.75 z"/>
<path fill="#4682b4" stroke="#4682b4" d="M20.15735238063781 0.75 L20.15735238063781 0 L20.187499999999996 0 L20.187499999999996 0.75 z"/>
<path fill="#4682b4" stroke="#4682b4" d="M20.124999999999996 0.75 L20.124999999999996 0 L20.15735238063781 0 L20.15735238063781 0.75 z"/>
<path fill="#4682b4" stroke="#4682b4" d="M20.092647619362182 0.75 L20.092647619362182 0 L20.124999999999996 0 L20.124999999999996 0.75 z"/>
<path fill="#4682b4" stroke="#4682b4" d="M20.062499999999996 0.75 L20.062499999999996 0 L20.092647619362182 0 L20.092647619362182 0.75 z"/>
<path fill="#4682b4" stroke="#4682b4" d="M20.036611652351674 0.75 L20.036611652351674 0 L20.062499999999996 0 L20.062499999999996 0.75 z"/>
<path fill="#4682b4" stroke="#4682b4" d="M0.0366116523516816 0.75 L0.0366116523516816 0 L20.036611652351677 0 L20.036611652351677 0.75 z"/>
<path fill="#4682b4" stroke="#4682b4" d="M0.01674682452694693 0.75 L0.01674682452694693 0 L0.036611652351685606 0 L0.036611652351685606 0.75 z"/>
<path fill="#4682b4" stroke="#4682b4" d="M0.004259271713868383 0.75 L0.004259271713868383 0 L0.016746824526948517 0 L0.016746824526948517 0.75 z"/>
<path fill="#4682b4" stroke="#4682b4" d="M1.0801927346743482e-15 0.75 L1.0801927346743482e-15 0 L0.004259271713866586 0 L0.004259271713866586 0.75 z"/>
<path fill="#4682b4" stroke="#4682b4" d="M0.004259271713866447 0.75 L0 0.75 L0.004259271713866475 0.75 L0.01674682452694519 0.75 L0.03661165235168161 0.75 L20.03661165235168 0.75 L20.0625 0.75 L20.092647619362186 0.75 L20.125 0.75 L20.157352380637814 0.75 L20.1875 0.75 L20.21338834764832 0.75 L20.233253175473056 0.75 L20.245740728286133 0.75 L20.25 0.75 L17.75 0.75 L17.745740728286133 0.75 L17.733253175473056 0.75 L17.71338834764832 0.75 L17.6875 0.75 L17.657352380637814 0.75 L17.625 0.75 L0.125 0.75 L0.0926476193621847 0.75 L0.06249999999999985 0.75 L0.03661165235168147 0.75 L0.01674682452694512 0.75 z"/>
<path fill="#4682b4" stroke="#4682b4" d="M0.004259271713866447 0 L0.01674682452694512 0 L0.03661165235168147 0 L0.06249999999999985 0 L0.0926476193621847 0 L0.125 0 L17.625 0 L17.657352380637814 0 L17.6875 0 L17.71338834764832 0 L17.733253175473056 0 L17.745740728286133 0 L17.75 0 L20.25 0 L20.245740728286133 0 L20.233253175473056 0 L20.21338834764832 0 L20.1875 0 L20.157352380637814 0 L20.125 0 L20.092647619362186 0 L20.0625 0 L20.03661165235168 0 L0.03661165235168161 0 L0.01674682452694519 0 L0.004259271713866475 0 L0 0 z"/>
<path fill="#4682b4" stroke="#4682b4" d="M20.004259271713863 0.75 L20.004259271713863 0 L19.999999999999996 0 L19.999999999999996 0.75 z"/>
<path fill="#4682b4" stroke="#4682b4" d="M20.01674682452694 0.75 L20.01674682452694 0 L20.004259271713863 0 L20.004259271713863 0.75 z"/>
<path fill="#4682b4" stroke="#4682b4" d="M20.036611652351674 0.75 L20.036611652351674 0 L20.01674682452694 0 L20.01674682452694 0.75 z"/>
<path fill="#4682b4" stroke="#4682b4" d="M20.062499999999996 0.75 L20.062499999999996 0 L20.036611652351674 0 L20.036611652351674 0.75 z"/>
<path fill="#4682b4" stroke="#4682b4" d="M20.092647619362182 0.75 L20.092647619362182 0 L20.062499999999996 0 L20.062499999999996 0.75 z"/>
<path fill="#4682b4" stroke="#4682b4" d="M20.124999999999996 0.75 L20.124999999999996 0 L20.092647619362182 0 L20.092647619362182 0.75 z"/>
<path fill="#4682b4" stroke="#4682b4" d="M20.15735238063781 0.75 L20.15735238063781 0 L20.124999999999996 0 L20.124999999999996 0.75 z"/>
<path fill="#4682b4" stroke="#4682b4" d="M20.187499999999996 0.75 L20.187499999999996 0 L20.15735238063781 0 L20.15735238063781 0.75 z"/>
<path fill="#4682b4" stroke="#4682b4" d="M32.18749999999999 0.75 L32.18749999999999 0 L20.187499999999996 0 L20.187499999999996 0.75 z"/>
<path fill="#4682b4" stroke="#4682b4" d="M32.21338834764831 0.75 L32.21338834764831 0 L32.18749999999999 0 L32.18749999999999 0.75 z"/>
<path fill="#4682b4" stroke="#4682b4" d="M32.23325317547305 0.75 L32.23325317547305 0 L32.21338834764832 0 L32.21338834764832 0.75 z"/>
<path fill="#4682b4" stroke="#4682b4" d="M32.24574072828614 0.75 L32.24574072828614 0 L32.23325317547305 0 L32.23325317547305 0.75 z"/>
<path fill="#4682b4" stroke="#4682b4" d="M32.25 0.75 L32.25 0 L32.24574072828614 0 L32.24574072828614 0.75 z"/>
<path fill="#4682b4" stroke="#4682b4" d="M32.24574072828613 0.75 L32.24574072828613 0 L32.24999999999999 0 L32.24999999999999 0.75 z"/>
<path fill="#4682b4" stroke="#4682b4" d="M32.233253175473045 0.75 L32.233253175473045 0 L32.24574072828613 0 L32.24574072828613 0.75 z"/>
<path fill="#4682b4" stroke="#4682b4" d="M32.21338834764831 0.75 L32.21338834764831 0 L32.233253175473045 0 L32.233253175473045 0.75 z"/>
<path fill="#4682b4" stroke="#4682b4" d="M24.213388347648316 0.75 L24.213388347648316 0 L32.21338834764832 0 L32.21338834764832 0.75 z"/>
<path fill="#4682b4" stroke="#4682b4" d="M24.187499999999996 0.75 L24.187499999999996 0 L24.213388347648316 0 L24.213388347648316 0.75 z"/>
<path fill="#4682b4" stroke="#4682b4" d="M24.15735238063781 0.75 L24.15735238063781 0 L24.187499999999996 0 L24.187499999999996 0.75 z"/>
<path fill="#4682b4" stroke="#4682b4" d="M24.124999999999996 0.75 L24.124999999999996 0 L24.15735238063781 0 L24.15735238063781 0.75 z"/>
<path fill="#4682b4" stroke="#4682b4" d="M24.092647619362182 0.75 L24.092647619362182 0 L24.124999999999996 0 L24.124999999999996 0.75 z"/>
<path fill="#4682b4" stroke="#4682b4" d="M24.062499999999993 0.75 L24.062499999999993 0 L24.092647619362182 0 L24.092647619362182 0.75 z"/>
<path fill="#4682b4" stroke="#4682b4" d="M24.036611652351677 0.75 L24.036611652351677 0 L24.062499999999993 0 L24.062499999999993 0.75 z"/>
<path fill="#4682b4" stroke="#4682b4" d="M24.016746824526944 0.75 L24.016746824526944 0 L24.03661165235168 0 L24.03661165235168 0.75 z"/>
<path fill="#4682b4" stroke="#4682b4" d="M24.004259271713867 0.75 L24.004259271713867 0 L24.016746824526944 0 L24.016746824526944 0.75 z"/>
<path fill="#4682b4" stroke="#4682b4" d="M20.004259271713867 0.75 L20.004259271713867 0 L24.004259271713867 0 L24.004259271713867 0.75 z"/>
<path fill="#4682b4" stroke="#4682b4" d="M20 0.75 L20 0 L20.004259271713867 0 L20.004259271713867 0.75 z"/>
<path fill="#4682b4" stroke="#4682b4" d="M20.004259271713867 0.75 L20 0.75 L20.004259271713867 0.75 L24.004259271713867 0.75 L24.016746824526944 0.75 L24.03661165235168 0.75 L24.0625 0.75 L24.092647619362186 0.75 L24.125 0.75 L24.157352380637814 0.75 L24.1875 0.75 L24.21338834764832 0.75 L32.21338834764832 0.75 L32.23325317547305 0.75 L32.24574072828614 0.75 L32.25 0.75 L32.24574072828614 0.75 L32.23325317547305 0.75 L32.21338834764832 0.75 L32.1875 0.75 L20.1875 0.75 L20.157352380637814 0.75 L20.125 0.75 L20.092647619362186 0.75 L20.0625 0.75 L20.03661165235168 0.75 L20.016746824526944 0.75 z"/>
<path fill="#4682b4" stroke="#4682b4" d="M20.004259271713867 0 L20.016746824526944 0 L20.03661165235168 0 L20.0625 0 L20.092647619362186 0 L20.125 0 L20.157352380637814 0 L20.1875 0 L32.1875 0 L32.21338834764832 0 L32.23325317547305 0 L32.24574072828614 0 L32.25 0 L32.24574072828614 0 L32.23325317547305 0 L32.21338834764832 0 L24.21338834764832 0 L24.1875 0 L24.157352380637814 0 L24.125 0 L24.092647619362186 0 L24.0625 0 L24.03661165235168 0 L24.016746824526944 0 L24.004259271713867 0 L20.004259271713867 0 L20 0 z"/>
<path fill="#4682b4" stroke="#4682b4" d="M0.00425927171386585 -23.25 L0.00425927171386585 -24 L-1.080192734674341e-15 -24 L-1.080192734674341e-15 -23.25 z"/>
<path fill="#4682b4" stroke="#4682b4" d="M0.016746824526942757 -23.25 L0.016746824526942757 -24 L0.004259271713862667 -24 L0.004259271713862667 -23.25 z"/>
<path fill="#4682b4" stroke="#4682b4" d="M0.036611652351678306 -23.25 L0.036611652351678306 -24 L0.0167468245269397 -24 L0.0167468245269397 -23.25 z"/>
<path fill="#4682b4" stroke="#4682b4" d="M9.786611652351677 -23.25 L9.786611652351677 -24 L0.03661165235168075 -24 L0.03661165235168075 -23.25 z"/>
<path fill="#4682b4" stroke="#4682b4" d="M9.812499999999998 -23.25 L9.812499999999998 -24 L9.786611652351679 -24 L9.786611652351679 -23.25 z"/>
<path fill="#4682b4" stroke="#4682b4" d="M9.842647619362182 -23.25 L9.842647619362182 -24 L9.812499999999998 -24 L9.812499999999998 -23.25 z"/>
<path fill="#4682b4" stroke="#4682b4" d="M9.874999999999998 -23.25 L9.874999999999998 -24 L9.842647619362182 -24 L9.842647619362182 -23.25 z"/>
<path fill="#4682b4" stroke="#4682b4" d="M23.125 -23.249999999999996 L23.125 -23.999999999999996 L9.875 -23.999999999999996 L9.875 -23.249999999999996 z"/>
<path fill="#4682b4" stroke="#4682b4" d="M23.15735238063781 -23.25 L23.15735238063781 -24 L23.124999999999996 -24 L23.124999999999996 -23.25 z"/>
<path fill="#4682b4" stroke="#4682b4" d="M23.187499999999996 -23.25 L23.187499999999996 -24 L23.157352380637807 -24 L23.157352380637807 -23.25 z"/>
<path fill="#4682b4" stroke="#4682b4" d="M23.213388347648316 -23.25 L23.213388347648316 -24 L23.187499999999996 -24 L23.187499999999996 -23.25 z"/>
<path fill="#4682b4" stroke="#4682b4" d="M23.23325317547306 -23.25 L23.23325317547306 -24 L23.213388347648323 -24 L23.213388347648323 -23.25 z"/>
<path fill="#4682b4" stroke="#4682b4" d="M23.245740728286133 -23.25 L23.245740728286133 -24 L23.233253175473056 -24 L23.233253175473056 -23.25 z"/>
<path fill="#4682b4" stroke="#4682b4" d="M23.25 -23.25 L23.25 -24 L23.245740728286133 -24 L23.245740728286133 -23.25 z"/>
<path fill="#4682b4" stroke="#4682b4" d="M23.25 -23.25 L23.25 -24 L23.25 -24 L23.25 -23.25 z"/>
<path fill="#4682b4" stroke="#4682b4" d="M23.24574072828613 -23.25 L23.24574072828613 -24 L23.249999999999996 -24 L23.249999999999996 -23.25 z"/>
<path fill="#4682b4" stroke="#4682b4" d="M23.233253175473052 -23.25 L23.233253175473052 -24 L23.24574072828613 -24 L23.24574072828613 -23.25 z"/>
<path fill="#4682b4" stroke="#4682b4" d="M23.213388347648316 -23.25 L23.213388347648316 -24 L23.23325317547305 -24 L23.23325317547305 -23.25 z"/>
<path fill="#4682b4" stroke="#4682b4" d="M23.187499999999996 -23.25 L23.187499999999996 -24 L23.213388347648316 -24 L23.213388347648316 -23.25 z"/>
<path fill="#4682b4" stroke="#4682b4" d="M17.687499999999996 -23.25 L17.687499999999996 -24 L23.187499999999996 -24 L23.187499999999996 -23.25 z"/>
<path fill="#4682b4" stroke="#4682b4" d="M17.65735238063781 -23.25 L17.65735238063781 -24 L17.687499999999996 -24 L17.687499999999996 -23.25 z"/>
<path fill="#4682b4" stroke="#4682b4" d="M17.624999999999996 -23.25 L17.624999999999996 -24 L17.65735238063781 -24 L17.65735238063781 -23.25 z"/>
<path fill="#4682b4" stroke="#4682b4" d="M0.12500000000000006 -23.25 L0.12500000000000006 -24 L17.624999999999996 -24 L17.624999999999996 -23.25 z"/>
<path fill="#4682b4" stroke="#4682b4" d="M0.09264761936218496 -23.25 L0.09264761936218496 -24 L0.12500000000000006 -24 L0.12500000000000006 -23.25 z"/>
<path fill="#4682b4" stroke="#4682b4" d="M0.06250000000000006 -23.25 L0.06250000000000006 -24 L0.09264761936218495 -24 L0.09264761936218495 -23.25 z"/>
<path fill="#4682b4" stroke="#4682b4" d="M0.0366116523516816 -23.25 L0.0366116523516816 -24 L0.06250000000000006 -24 L0.06250000000000006 -23.25 z"/>
<path fill="#4682b4" stroke="#4682b4" d="M0.01674682452694693 -23.25 L0.01674682452694693 -24 L0.036611652351685606 -24 L0.036611652351685606 -23.25 z"/>
<path fill="#4682b4" stroke="#4682b4" d="M0.004259271713868383 -23.25 L0.004259271713868383 -24 L0.016746824526948517 -24 L0.016746824526948517 -23.25 z"/>
<path fill="#4682b4" stroke="#4682b4" d="M1.0801927346743482e-15 -23.25 L1.0801927346743482e-15 -24 L0.004259271713866586 -24 L0.004259271713866586 -23.25 z"/>
<path fill="#4682b4" stroke="#4682b4" d="M0.004259271713866447 -23.25 L0 -23.25 L0.004259271713866475 -23.25 L0.01674682452694519 -23.25 L0.03661165235168161 -23.25 L0.06250000000000007 -23.25 L0.09264761936218498 -23.25 L0.12500000000000006 -23.25 L17.625 -23.25 L17.657352380637814 -23.25 L17.6875 -23.25 L23.1875 -23.25 L23.21338834764832 -23.25 L23.233253175473056 -23.25 L23.245740728286133 -23.25 L23.25 -23.25 L23.25 -23.25 L23.245740728286133 -23.25 L23.233253175473056 -23.25 L23.21338834764832 -23.25 L23.1875 -23.25 L23.157352380637814 -23.25 L23.125 -23.25 L9.875 -23.25 L9.842647619362184 -23.25 L9.8125 -23.25 L9.78661165235168 -23.25 L0.03661165235168147 -23.25 L0.01674682452694512 -23.25 z"/>
<path fill="#4682b4" stroke="#4682b4" d="M0.004259271713866447 -24 L0.01674682452694512 -24 L0.03661165235168147 -24 L9.78661165235168 -24 L9.8125 -24 L9.842647619362184 -24 L9.875 -24 L23.125 -24 L23.157352380637814 -24 L23.1875 -24 L23.21338834764832 -24 L23.233253175473056 -24 L23.245740728286133 -24 L23.25 -24 L23.25 -24 L23.245740728286133 -24 L23.233253175473056 -24 L23.21338834764832 -24 L23.1875 -24 L17.6875 -24 L17.657352380637814 -24 L17.625 -24 L0.12500000000000006 -24 L0.09264761936218498 -24 L0.06250000000000007 -24 L0.03661165235168161 -24 L0.01674682452694519 -24 L0.004259271713866475 -24 L0 -24 z"/>
<path fill="#4682b4" stroke="#4682b4" d="M0 -23.25 L0 -24 L0 -24 L0 -23.25 z"/>
<path fill="#4682b4" stroke="#4682b4" d="M0.00425927171386585 -23.25 L0.00425927171386585 -24 L-1.080192734674341e-15 -24 L-1.080192734674341e-15 -23.25 z"/>
<path fill="#4682b4" stroke="#4682b4" d="M0.016746824526942757 -23.25 L0.016746824526942757 -24 L0.004259271713862667 -24 L0.004259271713862667 -23.25 z"/>
<path fill="#4682b4" stroke="#4682b4" d="M0.036611652351678306 -23.25 L0.036611652351678306 -24 L0.0167468245269397 -24 L0.0167468245269397 -23.25 z"/>
<path fill="#4682b4" stroke="#4682b4" d="M0.06249999999999984 -23.25 L0.06249999999999984 -24 L0.03661165235168146 -24 L0.03661165235168146 -23.25 z"/>
<path fill="#4682b4" stroke="#4682b4" d="M0.09264761936218469 -23.25 L0.09264761936218469 -24 L0.06249999999999984 -24 L0.06249999999999984 -23.25 z"/>
<path fill="#4682b4" stroke="#4682b4" d="M0.12499999999999999 -23.25 L0.12499999999999999 -24 L0.0926476193621847 -24 L0.0926476193621847 -23.25 z"/>
<path fill="#4682b4" stroke="#4682b4" d="M0.15735238063781506 -23.25 L0.15735238063781506 -24 L0.12499999999999999 -24 L0.12499999999999999 -23.25 z"/>
<path fill="#4682b4" stroke="#4682b4" d="M0.18749999999999997 -23.25 L0.18749999999999997 -24 L0.15735238063781506 -24 L0.15735238063781506 -23.25 z"/>
<path fill="#4682b4" stroke="#4682b4" d="M0.2133883476483184 -23.25 L0.2133883476483184 -24 L0.18749999999999994 -24 L0.18749999999999994 -23.25 z"/>
<path fill="#4682b4" stroke="#4682b4" d="M20.213388347648316 -23.25 L20.213388347648316 -24 L0.21338834764831838 -24 L0.21338834764831838 -23.25 z"/>
<path fill="#4682b4" stroke="#4682b4" d="M20.233253175473056 -23.25 L20.233253175473056 -24 L20.213388347648323 -24 L20.213388347648323 -23.25 z"/>
<path fill="#4682b4" stroke="#4682b4" d="M20.245740728286133 -23.25 L20.245740728286133 -24 L20.233253175473056 -24 L20.233253175473056 -23.25 z"/>
<path fill="#4682b4" stroke="#4682b4" d="M24.245740728286133 -23.25 L24.245740728286133 -24 L20.245740728286133 -24 L20.245740728286133 -23.25 z"/>
<path fill="#4682b4" stroke="#4682b4" d="M24.25 -23.25 L24.25 -24 L24.245740728286133 -24 L24.245740728286133 -23.25 z"/>
<path fill="#4682b4" stroke="#4682b4" d="M24.25 -23.25 L24.25 -24 L24.25 -24 L24.25 -23.25 z"/>
<path fill="#4682b4" stroke="#4682b4" d="M24.24574072828613 -23.25 L24.24574072828613 -24 L24.249999999999996 -24 L24.249999999999996 -23.25 z"/>
<path fill="#4682b4" stroke="#4682b4" d="M24.233253175473052 -23.25 L24.233253175473052 -24 L24.24574072828613 -24 L24.24574072828613 -23.25 z"/>
<path fill="#4682b4" stroke="#4682b4" d="M24.213388347648316 -23.25 L24.213388347648316 -24 L24.233253175473052 -24 L24.233253175473052 -23.25 z"/>
<path fill="#4682b4" stroke="#4682b4" d="M24.187499999999996 -23.25 L24.187499999999996 -24 L24.213388347648316 -24 L24.213388347648316 -23.25 z"/>
<path fill="#4682b4" stroke="#4682b4" d="M24.15735238063781 -23.25 L24.15735238063781 -24 L24.187499999999996 -24 L24.187499999999996 -23.25 z"/>
<path fill="#4682b4" stroke="#4682b4" d="M24.124999999999996 -23.25 L24.124999999999996 -24 L24.15735238063781 -24 L24.15735238063781 -23.25 z"/>
<path fill="#4682b4" stroke="#4682b4" d="M0.12500000000000006 -23.249999999999996 L0.12500000000000006 -23.999999999999996 L24.125 -23.999999999999996 L24.125 -23.249999999999996 z"/>
<path fill="#4682b4" stroke="#4682b4" d="M0.09264761936218496 -23.25 L0.09264761936218496 -24 L0.12500000000000006 -24 L0.12500000000000006 -23.25 z"/>
<path fill="#4682b4" stroke="#4682b4" d="M0.06250000000000006 -23.25 L0.06250000000000006 -24 L0.09264761936218495 -24 L0.09264761936218495 -23.25 z"/>
<path fill="#4682b4" stroke="#4682b4" d="M0.0366116523516816 -23.25 L0.0366116523516816 -24 L0.06250000000000006 -24 L0.06250000000000006 -23.25 z"/>
<path fill="#4682b4" stroke="#4682b4" d="M0.01674682452694519 -23.25 L0.01674682452694519 -24 L0.03661165235168161 -24 L0.03661165235168161 -23.25 z"/>
<path fill="#4682b4" stroke="#4682b4" d="M0.004259271713866481 -23.25 L0.004259271713866481 -24 L0.016746824526945193 -24 L0.016746824526945193 -23.25 z"/>
<path fill="#4682b4" stroke="#4682b4" d="M2.3844065057114798e-18 -23.25 L2.3844065057114798e-18 -24 L0.004259271713866475 -24 L0.004259271713866475 -23.25 z"/>
<path fill="#4682b4" stroke="#4682b4" d="M0 -23.25 L0 -23.25 L0.004259271713866475 -23.25 L0.01674682452694519 -23.25 L0.03661165235168161 -23.25 L0.06250000000000007 -23.25 L0.09264761936218498 -23.25 L0.12500000000000006 -23.25 L24.125 -23.25 L24.157352380637814 -23.25 L24.1875 -23.25 L24.21338834764832 -23.25 L24.233253175473056 -23.25 L24.245740728286133 -23.25 L24.25 -23.25 L24.25 -23.25 L24.245740728286133 -23.25 L20.245740728286133 -23.25 L20.233253175473056 -23.25 L20.21338834764832 -23.25 L0.2133883476483184 -23.25 L0.18749999999999997 -23.25 L0.1573523806378151 -23.25 L0.125 -23.25 L0.0926476193621847 -23.25 L0.06249999999999985 -23.25 L0.03661165235168147 -23.25 L0.01674682452694512 -23.25 L0.004259271713866447 -23.25 z"/>
<path fill="#4682b4" stroke="#4682b4" d="M0 -24 L0.004259271713866447 -24 L0.01674682452694512 -24 L0.03661165235168147 -24 L0.06249999999999985 -24 L0.0926476193621847 -24 L0.125 -24 L0.1573523806378151 -24 L0.18749999999999997 -24 L0.2133883476483184 -24 L20.21338834764832 -24 L20.233253175473056 -24 L20.245740728286133 -24 L24.245740728286133 -24 L24.25 -24 L24.25 -24 L24.245740728286133 -24 L24.233253175473056 -24 L24.21338834764832 -24 L24.1875 -24 L24.157352380637814 -24 L24.125 -24 L0.12500000000000006 -24 L0.09264761936218498 -24 L0.06250000000000007 -24 L0.03661165235168161 -24 L0.01674682452694519 -24 L0.004259271713866475 -24 L0 -24 z"/>
<path fill="#4682b4" stroke="#4682b4" d="M20.004259271713863 -23.25 L20.004259271713863 -24 L19.999999999999996 -24 L19.999999999999996 -23.25 z"/>
<path fill="#4682b4" stroke="#4682b4" d="M20.01674682452694 -23.25 L20.01674682452694 -24 L20.004259271713863 -24 L20.004259271713863 -23.25 z"/>
<path fill="#4682b4" stroke="#4682b4" d="M20.036611652351674 -23.25 L20.036611652351674 -24 L20.01674682452694 -24 L20.01674682452694 -23.25 z"/>
<path fill="#4682b4" stroke="#4682b4" d="M20.062499999999996 -23.25 L20.062499999999996 -24 L20.036611652351674 -24 L20.036611652351674 -23.25 z"/>
<path fill="#4682b4" stroke="#4682b4" d="M20.092647619362182 -23.25 L20.092647619362182 -24 L20.062499999999996 -24 L20.062499999999996 -23.25 z"/>
<path fill="#4682b4" stroke="#4682b4" d="M20.124999999999996 -23.25 L20.124999999999996 -24 L20.092647619362182 -24 L20.092647619362182 -23.25 z"/>
<path fill="#4682b4" stroke="#4682b4" d="M20.15735238063781 -23.25 L20.15735238063781 -24 L20.124999999999996 -24 L20.124999999999996 -23.25 z"/>
<path fill="#4682b4" stroke="#4682b4" d="M32.15735238063781 -23.25 L32.15735238063781 -24 L20.15735238063781 -24 L20.15735238063781 -23.25 z"/>
<path fill="#4682b4" stroke="#4682b4" d="M32.18749999999999 -23.25 L32.18749999999999 -24 L32.15735238063781 -24 L32.15735238063781 -23.25 z"/>
<path fill="#4682b4" stroke="#4682b4" d="M32.21338834764831 -23.25 L32.21338834764831 -24 L32.18749999999999 -24 L32.18749999999999 -23.25 z"/>
<path fill="#4682b4" stroke="#4682b4" d="M32.23325317547305 -23.25 L32.23325317547305 -24 L32.21338834764832 -24 L32.21338834764832 -23.25 z"/>
<path fill="#4682b4" stroke="#4682b4" d="M32.24574072828614 -23.25 L32.24574072828614 -24 L32.23325317547305 -24 L32.23325317547305 -23.25 z"/>
<path fill="#4682b4" stroke="#4682b4" d="M32.25 -23.25 L32.25 -24 L32.24574072828614 -24 L32.24574072828614 -23.25 z"/>
<path fill="#4682b4" stroke="#4682b4" d="M32.25 -23.25 L32.25 -24 L32.25 -24 L32.25 -23.25 z"/>
<path fill="#4682b4" stroke="#4682b4" d="M32.24574072828613 -23.25 L32.24574072828613 -24 L32.24999999999999 -24 L32.24999999999999 -23.25 z"/>
<path fill="#4682b4" stroke="#4682b4" d="M32.233253175473045 -23.25 L32.233253175473045 -24 L32.24574072828613 -24 L32.24574072828613 -23.25 z"/>
<path fill="#4682b4" stroke="#4682b4" d="M32.21338834764831 -23.25 L32.21338834764831 -24 L32.233253175473045 -24 L32.233253175473045 -23.25 z"/>
<path fill="#4682b4" stroke="#4682b4" d="M32.18749999999999 -23.25 L32.18749999999999 -24 L32.21338834764831 -24 L32.21338834764831 -23.25 z"/>
<path fill="#4682b4" stroke="#4682b4" d="M32.15735238063781 -23.25 L32.15735238063781 -24 L32.18749999999999 -24 L32.18749999999999 -23.25 z"/>
<path fill="#4682b4" stroke="#4682b4" d="M32.12499999999999 -23.25 L32.12499999999999 -24 L32.15735238063781 -24 L32.15735238063781 -23.25 z"/>
<path fill="#4682b4" stroke="#4682b4" d="M32.09264761936218 -23.25 L32.09264761936218 -24 L32.12499999999999 -24 L32.12499999999999 -23.25 z"/>
<path fill="#4682b4" stroke="#4682b4" d="M32.06249999999999 -23.25 L32.06249999999999 -24 L32.092647619362175 -24 L32.092647619362175 -23.25 z"/>
<path fill="#4682b4" stroke="#4682b4" d="M20.062499999999996 -23.25 L20.062499999999996 -24 L32.0625 -24 L32.0625 -23.25 z"/>
<path fill="#4682b4" stroke="#4682b4" d="M20.036611652351674 -23.25 L20.036611652351674 -24 L20.062499999999996 -24 L20.062499999999996 -23.25 z"/>
<path fill="#4682b4" stroke="#4682b4" d="M20.016746824526948 -23.25 L20.016746824526948 -24 L20.03661165235168 -24 L20.03661165235168 -23.25 z"/>
<path fill="#4682b4" stroke="#4682b4" d="M20.004259271713867 -23.25 L20.004259271713867 -24 L20.016746824526944 -24 L20.016746824526944 -23.25 z"/>
<path fill="#4682b4" stroke="#4682b4" d="M20 -23.25 L20 -24 L20.004259271713867 -24 L20.004259271713867 -23.25 z"/>
<path fill="#4682b4" stroke="#4682b4" d="M20.004259271713867 -23.25 L20 -23.25 L20.004259271713867 -23.25 L20.016746824526944 -23.25 L20.03661165235168 -23.25 L20.0625 -23.25 L32.0625 -23.25 L32.09264761936218 -23.25 L32.125 -23.25 L32.15735238063782 -23.25 L32.1875 -23.25 L32.21338834764832 -23.25 L32.23325317547305 -23.25 L32.24574072828614 -23.25 L32.25 -23.25 L32.25 -23.25 L32.24574072828614 -23.25 L32.23325317547305 -23.25 L32.21338834764832 -23.25 L32.1875 -23.25 L32.15735238063782 -23.25 L20.157352380637814 -23.25 L20.125 -23.25 L20.092647619362186 -23.25 L20.0625 -23.25 L20.03661165235168 -23.25 L20.016746824526944 -23.25 z"/>
<path fill="#4682b4" stroke="#4682b4" d="M20.004259271713867 -24 L20.016746824526944 -24 L20.03661165235168 -24 L20.0625 -24 L20.092647619362186 -24 L20.125 -24 L20.157352380637814 -24 L32.15735238063782 -24 L32.1875 -24 L32.21338834764832 -24 L32.23325317547305 -24 L32.24574072828614 -24 L32.25 -24 L32.25 -24 L32.24574072828614 -24 L32.23325317547305 -24 L32.21338834764832 -24 L32.1875 -24 L32.15735238063782 -24 L32.125 -24 L32.09264761936218 -24 L32.0625 -24 L20.0625 -24 L20.03661165235168 -24 L20.016746824526944 -24 L20.004259271713867 -24 L20 -24 z"/>
<path fill="#4682b4" stroke="#4682b4" d="M0.00425927171386585 -23.25 L0.00425927171386585 -24 L-1.080192734674341e-15 -24 L-1.080192734674341e-15 -23.25 z"/>
<path fill="#4682b4" stroke="#4682b4" d="M0.016746824526942757 -23.25 L0.016746824526942757 -24 L0.004259271713862667 -24 L0.004259271713862667 -23.25 z"/>
<path fill="#4682b4" stroke="#4682b4" d="M0.036611652351678306 -23.25 L0.036611652351678306 -24 L0.0167468245269397 -24 L0.0167468245269397 -23.25 z"/>
<path fill="#4682b4" stroke="#4682b4" d="M0.06249999999999984 -23.25 L0.06249999999999984 -24 L0.03661165235168146 -24 L0.03661165235168146 -23.25 z"/>
<path fill="#4682b4" stroke="#4682b4" d="M0.09264761936218469 -23.25 L0.09264761936218469 -24 L0.06249999999999984 -24 L0.06249999999999984 -23.25 z"/>
<path fill="#4682b4" stroke="#4682b4" d="M0.12499999999999999 -23.25 L0.12499999999999999 -24 L0.0926476193621847 -24 L0.0926476193621847 -23.25 z"/>
<path fill="#4682b4" stroke="#4682b4" d="M17.624999999999996 -23.25 L17.624999999999996 -24 L0.12499999999999999 -24 L0.12499999999999999 -23.25 z"/>
<path fill="#4682b4" stroke="#4682b4" d="M17.65735238063781 -23.25 L17.65735238063781 -24 L17.624999999999996 -24 L17.624999999999996 -23.25 z"/>
<path fill="#4682b4" stroke="#4682b4" d="M17.687499999999996 -23.25 L17.687499999999996 -24 L17.65735238063781 -24 L17.65735238063781 -23.25 z"/>
<path fill="#4682b4" stroke="#4682b4" d="M17.713388347648316 -23.25 L17.713388347648316 -24 L17.687499999999996 -24 L17.687499999999996 -23.25 z"/>
<path fill="#4682b4" stroke="#4682b4" d="M17.733253175473056 -23.25 L17.733253175473056 -24 L17.713388347648323 -24 L17.713388347648323 -23.25 z"/>
<path fill="#4682b4" stroke="#4682b4" d="M17.745740728286133 -23.25 L17.745740728286133 -24 L17.733253175473056 -24 L17.733253175473056 -23.25 z"/>
<path fill="#4682b4" stroke="#4682b4" d="M17.75 -23.25 L17.75 -24 L17.745740728286133 -24 L17.745740728286133 -23.25 z"/>
<path fill="#4682b4" stroke="#4682b4" d="M20.25 -23.25 L20.25 -24 L17.75 -24 L17.75 -23.25 z"/>
<path fill="#4682b4" stroke="#4682b4" d="M20.24574072828613 -23.25 L20.24574072828613 -24 L20.249999999999996 -24 L20.249999999999996 -23.25 z"/>
<path fill="#4682b4" stroke="#4682b4" d="M20.233253175473052 -23.25 L20.233253175473052 -24 L20.24574072828613 -24 L20.24574072828613 -23.25 z"/>
<path fill="#4682b4" stroke="#4682b4" d="M20.213388347648316 -23.25 L20.213388347648316 -24 L20.23325317547305 -24 L20.23325317547305 -23.25 z"/>
<path fill="#4682b4" stroke="#4682b4" d="M20.187499999999996 -23.25 L20.187499999999996 -24 L20.213388347648316 -24 L20.213388347648316 -23.25 z"/>
<path fill="#4682b4" stroke="#4682b4" d="M20.15735238063781 -23.25 L20.15735238063781 -24 L20.187499999999996 -24 L20.187499999999996 -23.25 z"/>
<path fill="#4682b4" stroke="#4682b4" d="M20.124999999999996 -23.25 L20.124999999999996 -24 L20.15735238063781 -24 L20.15735238063781 -23.25 z"/>
<path fill="#4682b4" stroke="#4682b4" d="M20.092647619362182 -23.25 L20.092647619362182 -24 L20.124999999999996 -24 L20.124999999999996 -23.25 z"/>
<path fill="#4682b4" stroke="#4682b4" d="M20.062499999999996 -23.25 L20.062499999999996 -24 L20.092647619362182 -24 L20.092647619362182 -23.25 z"/>
<path fill="#4682b4" stroke="#4682b4" d="M20.036611652351674 -23.25 L20.036611652351674 -24 L20.062499999999996 -24 L20.062499999999996 -23.25 z"/>
<path fill="#4682b4" stroke="#4682b4" d="M0.0366116523516816 -23.25 L0.0366116523516816 -24 L20.036611652351677 -24 L20.036611652351677 -23.25 z"/>
<path fill="#4682b4" stroke="#4682b4" d="M0.01674682452694693 -23.25 L0.01674682452694693 -24 L0.036611652351685606 -24 L0.036611652351685606 -23.25 z"/>
<path fill="#4682b4" stroke="#4682b4" d="M0.004259271713868383 -23.25 L0.004259271713868383 -24 L0.016746824526948517 -24 L0.016746824526948517 -23.25 z"/>
<path fill="#4682b4" stroke="#4682b4" d="M1.0801927346743482e-15 -23.25 L1.0801927346743482e-15 -24 L0.004259271713866586 -24 L0.004259271713866586 -23.25 z"/>
<path fill="#4682b4" stroke="#4682b4" d="M0.004259271713866447 -23.25 L0 -23.25 L0.004259271713866475 -23.25 L0.01674682452694519 -23.25 L0.03661165235168161 -23.25 L20.03661165235168 -23.25 L20.0625 -23.25 L20.092647619362186 -23.25 L20.125 -23.25 L20.157352380637814 -23.25 L20.1875 -23.25 L20.21338834764832 -23.25 L20.233253175473056 -23.25 L20.245740728286133 -23.25 L20.25 -23.25 L17.75 -23.25 L17.745740728286133 -23.25 L17.733253175473056 -23.25 L17.71338834764832 -23.25 L17.6875 -23.25 L17.657352380637814 -23.25 L17.625 -23.25 L0.125 -23.25 L0.0926476193621847 -23.25 L0.06249999999999985 -23.25 L0.03661165235168147 -23.25 L0.01674682452694512 -23.25 z"/>
<path fill="#4682b4" stroke="#4682b4" d="M0.004259271713866447 -24 L0.01674682452694512 -24 L0.03661165235168147 -24 L0.06249999999999985 -24 L0.0926476193621847 -24 L0.125 -24 L17.625 -24 L17.657352380637814 -24 L17.6875 -24 L17.71338834764832 -24 L17.733253175473056 -24 L17.745740728286133 -24 L17.75 -24 L20.25 -24 L20.245740728286133 -24 L20.233253175473056 -24 L20.21338834764832 -24 L20.1875 -24 L20.157352380637814 -24 L20.125 -24 L20.092647619362186 -24 L20.0625 -24 L20.03661165235168 -24 L0.03661165235168161 -24 L0.01674682452694519 -24 L0.004259271713866475 -24 L0 -24 z"/>
<path fill="#4682b4" stroke="#4682b4" d="M20.004259271713863 -23.25 L20.004259271713863 -24 L19.999999999999996 -24 L19.999999999999996 -23.25 z"/>
<path fill="#4682b4" stroke="#4682b4" d="M20.01674682452694 -23.25 L20.01674682452694 -24 L20.004259271713863 -24 L20.004259271713863 -23.25 z"/>
<path fill="#4682b4" stroke="#4682b4" d="M20.036611652351674 -23.25 L20.036611652351674 -24 L20.01674682452694 -24 L20.01674682452694 -23.25 z"/>
<path fill="#4682b4" stroke="#4682b4" d="M20.062499999999996 -23.25 L20.062499999999996 -24 L20.036611652351674 -24 L20.036611652351674 -23.25 z"/>
<path fill="#4682b4" stroke="#4682b4" d="M20.092647619362182 -23.25 L20.092647619362182 -24 L20.062499999999996 -24 L20.062499999999996 -23.25 z"/>
<path fill="#4682b4" stroke="#4682b4" d="M20.124999999999996 -23.25 L20.124999999999996 -24 L20.092647619362182 -24 L20.092647619362182 -23.25 z"/>
<path fill="#4682b4" stroke="#4682b4" d="M20.15735238063781 -23.25 L20.15735238063781 -24 L20.124999999999996 -24 L20.124999999999996 -23.25 z"/>
<path fill="#4682b4" stroke="#4682b4" d="M20.187499999999996 -23.25 L20.187499999999996 -24 L20.15735238063781 -24 L20.15735238063781 -23.25 z"/>
<path fill="#4682b4" stroke="#4682b4" d="M32.18749999999999 -23.25 L32.18749999999999 -24 L20.187499999999996 -24 L20.187499999999996 -23.25 z"/>
<path fill="#4682b4" stroke="#4682b4" d="M32.21338834764831 -23.25 L32.21338834764831 -24 L32.18749999999999 -24 L32.18749999999999 -23.25 z"/>
<path fill="#4682b4" stroke="#4682b4" d="M32.23325317547305 -23.25 L32.23325317547305 -24 L32.21338834764832 -24 L32.21338834764832 -23.25 z"/>
<path fill="#4682b4" stroke="#4682b4" d="M32.24574072828614 -23.25 L32.24574072828614 -24 L32.23325317547305 -24 L32.23325317547305 -23.25 z"/>
<path fill="#4682b4" stroke="#4682b4" d="M32.25 -23.25 L32.25 -24 L32.24574072828614 -24 L32.24574072828614 -23.25 z"/>
<path fill="#4682b4" stroke="#4682b4" d="M32.24574072828613 -23.25 L32.24574072828613 -24 L32.24999999999999 -24 L32.24999999999999 -23.25 z"/>
<path fill="#4682b4" stroke="#4682b4" d="M32.233253175473045 -23.25 L32.233253175473045 -24 L32.24574072828613 -24 L32.24574072828613 -23.25 z"/>
<path fill="#4682b4" stroke="#4682b4" d="M32.21338834764831 -23.25 L32.21338834764831 -24 L32.233253175473045 -24 L32.233253175473045 -23.25 z"/>
<path fill="#4682b4" stroke="#4682b4" d="M24.213388347648316 -23.25 L24.213388347648316 -24 L32.21338834764832 -24 L32.21338834764832 -23.25 z"/>
<path fill="#4682b4" stroke="#4682b4" d="M24.187499999999996 -23.25 L24.187499999999996 -24 L24.213388347648316 -24 L24.213388347648316 -23.25 z"/>
<path fill="#4682b4" stroke="#4682b4" d="M24.15735238063781 -23.25 L24.15735238063781 -24 L24.187499999999996 -24 L24.187499999999996 -23.25 z"/>
<path fill="#4682b4" stroke="#4682b4" d="M24.124999999999996 -23.25 L24.124999999999996 -24 L24.15735238063781 -24 L24.15735238063781 -23.25 z"/>
<path fill="#4682b4" stroke="#4682b4" d="M24.092647619362182 -23.25 L24.092647619362182 -24 L24.124999999999996 -24 L24.124999999999996 -23.25 z"/>
<path fill="#4682b4" stroke="#4682b4" d="M24.062499999999993 -23.25 L24.062499999999993 -24 L24.092647619362182 -24 L24.092647619362182 -23.25 z"/>
<path fill="#4682b4" stroke="#4682b4" d="M24.036611652351677 -23.25 L24.036611652351677 -24 L24.062499999999993 -24 L24.062499999999993 -23.25 z"/>
<path fill="#4682b4" stroke="#4682b4" d="M24.016746824526944 -23.25 L24.016746824526944 -24 L24.03661165235168 -24 L24.03661165235168 -23.25 z"/>
<path fill="#4682b4" stroke="#4682b4" d="M24.004259271713867 -23.25 L24.004259271713867 -24 L24.016746824526944 -24 L24.016746824526944 -23.25 z"/>
<path fill="#4682b4" stroke="#4682b4" d="M20.004259271713867 -23.25 L20.004259271713867 -24 L24.004259271713867 -24 L24.004259271713867 -23.25 z"/>
<path fill="#4682b4" stroke="#4682b4" d="M20 -23.25 L20 -24 L20.004259271713867 -24 L20.004259271713867 -23.25 z"/>
<path fill="#4682b4" stroke="#4682b4" d="M20.004259271713867 -23.25 L20 -23.25 L20.004259271713867 -23.25 L24.004259271713867 -23.25 L24.016746824526944 -23.25 L24.03661165235168 -23.25 L24.0625 -23.25 L24.092647619362186 -23.25 L24.125 -23.25 L24.157352380637814 -23.25 L24.1875 -23.25 L24.21338834764832 -23.25 L32.21338834764832 -23.25 L32.23325317547305 -23.25 L32.24574072828614 -23.25 L32.25 -23.25 L32.24574072828614 -23.25 L32.23325317547305 -23.25 L32.21338834764832 -23.25 L32.1875 -23.25 L20.1875 -23.25 L20.157352380637814 -23.25 L20.125 -23.25 L20.092647619362186 -23.25 L20.0625 -23.25 L20.03661165235168 -23.25 L20.016746824526944 -23.25 z"/>
<path fill="#4682b4" stroke="#4682b4" d="M20.004259271713867 -24 L20.016746824526944 -24 L20.03661165235168 -24 L20.0625 -24 L20.092647619362186 -24 L20.125 -24 L20.157352380637814 -24 L20.1875 -24 L32.1875 -24 L32.21338834764832 -24 L32.23325317547305 -24 L32.24574072828614 -24 L32.25 -24 L32.24574072828614 -24 L32.23325317547305 -24 L32.21338834764832 -24 L24.21338834764832 -24 L24.1875 -24 L24.157352380637814 -24 L24.125 -24 L24.092647619362186 -24 L24.0625 -24 L24.03661165235168 -24 L24.016746824526944 -24 L24.004259271713867 -24 L20.004259271713867 -24 L20 -24 z"/>
</svg>