<?xml version="1.0" encoding="UTF-8"?>
<!-- Generated by jsxcad -->
<!DOCTYPE svg PUBLIC "-//W3C//DTD SVG 1.1 Tiny//EN" "http://www.w3.org/Graphics/SVG/1.1/DTD/svg11-tiny.dtd">
<svg baseProfile="tiny" height="25.50000000000002mm" width="32.86602540378446mm" viewBox="0.0669872981077803 -0.7500000000000054 32.86602540378446 25.50000000000002" version="1.1" stroke="black" stroke-width=".1" fill="none" xmlns="http://www.w3.org/2000/svg">
<path fill="#4682b4" stroke="#4682b4" d="M9.816987298107772 0.75 L9.816987298107772 0 L0.06698729810778048 0 L0.06698729810778048 0.75 z"/>
<path fill="#4682b4" stroke="#4682b4" d="M10.249999999999998 0.75 L10.249999999999998 0 L9.81698729810778 0 L9.81698729810778 0.75 z"/>
<path fill="#4682b4" stroke="#4682b4" d="M23.5 0.7499999999999999 L23.5 0 L10.25 0 L10.25 0.7499999999999999 z"/>
<path fill="#4682b4" stroke="#4682b4" d="M23.933012701892213 0.75 L23.933012701892213 0 L23.499999999999996 0 L23.499999999999996 0.75 z"/>
<path fill="#4682b4" stroke="#4682b4" d="M23.93301270189222 0.75 L23.93301270189222 0 L23.93301270189222 0 L23.93301270189222 0.75 z"/>
<path fill="#4682b4" stroke="#4682b4" d="M18.433012701892217 0.75 L18.433012701892217 0 L23.933012701892217 0 L23.933012701892217 0.75 z"/>
<path fill="#4682b4" stroke="#4682b4" d="M17.999999999999996 0.75 L17.999999999999996 0 L18.433012701892217 0 L18.433012701892217 0.75 z"/>
<path fill="#4682b4" stroke="#4682b4" d="M0.5000000000000001 0.75 L0.5000000000000001 0 L17.999999999999996 0 L17.999999999999996 0.75 z"/>
<path fill="#4682b4" stroke="#4682b4" d="M0.06698729810778074 0.75 L0.06698729810778074 0 L0.5 0 L0.5 0.75 z"/>
<path fill="#4682b4" stroke="#4682b4" d="M0.06698729810778048 0.75 L0.06698729810778048 0 L0.06698729810778076 0 L0.06698729810778076 0.75 z"/>
<path fill="#4682b4" stroke="#4682b4" d="M9.816987298107781 0.75 L0.06698729810778048 0.75 L0.06698729810778076 0.75 L0.5000000000000001 0.75 L18 0.75 L18.43301270189222 0.75 L23.93301270189222 0.75 L23.93301270189222 0.75 L23.5 0.75 L10.25 0.75 z"/>
<path fill="#4682b4" stroke="#4682b4" d="M9.816987298107781 0 L10.25 0 L23.5 0 L23.93301270189222 0 L23.93301270189222 0 L18.43301270189222 0 L18 0 L0.5000000000000001 0 L0.06698729810778076 0 L0.06698729810778048 0 z"/>
<path fill="#4682b4" stroke="#4682b4" d="M0.06698729810778048 0 L0.06698729810778048 0 L0.06698729810778048 0.75 L0.06698729810778048 0.75 z"/>
<path fill="#4682b4" stroke="#4682b4" d="M0.49999999999999994 0 L0.06698729810778047 0 L0.06698729810778047 0.75 L0.49999999999999994 0.75 z"/>
<path fill="#4682b4" stroke="#4682b4" d="M0.9330127018922192 0 L0.5 0 L0.5 0.75 L0.9330127018922192 0.75 z"/>
<path fill="#4682b4" stroke="#4682b4" d="M20.933012701892217 0 L0.9330127018922192 0 L0.9330127018922192 0.75 L20.933012701892217 0.75 z"/>
<path fill="#4682b4" stroke="#4682b4" d="M24.93301270189222 0 L20.93301270189222 0 L20.93301270189222 0.75 L24.93301270189222 0.75 z"/>
<path fill="#4682b4" stroke="#4682b4" d="M24.93301270189222 0 L24.93301270189222 0 L24.93301270189222 0.75 L24.93301270189222 0.75 z"/>
<path fill="#4682b4" stroke="#4682b4" d="M24.499999999999996 0 L24.933012701892217 0 L24.933012701892217 0.75 L24.499999999999996 0.75 z"/>
<path fill="#4682b4" stroke="#4682b4" d="M0.5000000000000001 0 L24.5 0 L24.5 0.7499999999999999 L0.5000000000000001 0.7499999999999999 z"/>
<path fill="#4682b4" stroke="#4682b4" d="M0.06698729810778074 0 L0.5 0 L0.5 0.75 L0.06698729810778074 0.75 z"/>
<path fill="#4682b4" stroke="#4682b4" d="M0.06698729810778048 0 L0.06698729810778076 0 L0.06698729810778076 0.75 L0.06698729810778048 0.75 z"/>
<path fill="#4682b4" stroke="#4682b4" d="M0.5 0.75 L0.06698729810778048 0.75 L0.06698729810778048 0.75 L0.06698729810778076 0.75 L0.5000000000000001 0.75 L24.5 0.75 L24.93301270189222 0.75 L24.93301270189222 0.75 L20.93301270189222 0.75 L0.9330127018922193 0.75 z"/>
<path fill="#4682b4" stroke="#4682b4" d="M0.06698729810778048 0 L0.5 0 L0.9330127018922193 0 L20.93301270189222 0 L24.93301270189222 0 L24.93301270189222 0 L24.5 0 L0.5000000000000001 0 L0.06698729810778076 0 L0.06698729810778048 0 z"/>
<path fill="#4682b4" stroke="#4682b4" d="M27.984728161270613 0 L27.984728161270613 0.75 L27.931862101883205 0.75 L27.85415394013439 0.75 L27.85415394013439 0 L27.8579943584031 0 L27.90638362858888 0 L27.94990836896762 0 L27.982167882424807 0 z"/>
<path fill="#4682b4" stroke="#4682b4" d="M29.936774587660352 0 L29.84972510690287 0 L29.823610262675622 0 L29.823610262675622 0.75 L29.954184483811847 0.75 L29.954184483811847 0 L29.952904344388944 0 L29.950344065543135 0 z"/>
<path fill="#4682b4" stroke="#4682b4" d="M24.045815516188146 0 L24.045815516188146 0.75 L23.91524129505192 0.75 L23.91524129505192 0 L23.919081713320633 0 L24.0197006719609 0 z"/>
<path fill="#4682b4" stroke="#4682b4" d="M25.884697617593154 0 L25.884697617593154 0.75 L26.01527183872938 0.75 L26.01527183872938 0 L26.011431420460667 0 L25.96304215027489 0 z"/>
<path fill="#4682b4" stroke="#4682b4" d="M26.01527183872938 0 L26.01527183872938 0.75 L24.045815516188146 0.75 L24.045815516188146 0 L25.957346652772284 0 z"/>
<path fill="#4682b4" stroke="#4682b4" d="M29.954184483811847 0 L29.954184483811847 0.75 L29.32457963330681 0.75 L27.98472816127061 0.75 L27.98472816127061 0 L29.89625929785475 0 z"/>
<path fill="#4682b4" stroke="#4682b4" d="M25.884697617593154 0 L25.82677243163606 0 L23.91524129505192 0 L23.91524129505192 0.75 L25.884697617593154 0.75 z"/>
<path fill="#4682b4" stroke="#4682b4" d="M29.823610262675626 0 L29.765685076718526 0 L27.85415394013439 0 L27.85415394013439 0.75 L29.823610262675626 0.75 z"/>
<path fill="#4682b4" stroke="#4682b4" d="M20.06698729810778 0 L20.06698729810778 0 L20.06698729810778 0.75 L20.06698729810778 0.75 z"/>
<path fill="#4682b4" stroke="#4682b4" d="M20.499999999999996 0 L20.066987298107776 0 L20.066987298107776 0.75 L20.499999999999996 0.75 z"/>
<path fill="#4682b4" stroke="#4682b4" d="M32.49999999999999 0 L20.499999999999996 0 L20.499999999999996 0.75 L32.49999999999999 0.75 z"/>
<path fill="#4682b4" stroke="#4682b4" d="M32.93301270189221 0 L32.49999999999999 0 L32.49999999999999 0.75 L32.93301270189221 0.75 z"/>
<path fill="#4682b4" stroke="#4682b4" d="M32.93301270189222 0 L32.93301270189222 0 L32.93301270189222 0.75 L32.93301270189222 0.75 z"/>
<path fill="#4682b4" stroke="#4682b4" d="M32.49999999999999 0 L32.93301270189221 0 L32.93301270189221 0.75 L32.49999999999999 0.75 z"/>
<path fill="#4682b4" stroke="#4682b4" d="M32.066987298107776 0 L32.49999999999999 0 L32.49999999999999 0.75 L32.066987298107776 0.75 z"/>
<path fill="#4682b4" stroke="#4682b4" d="M20.066987298107776 0 L32.066987298107776 0 L32.066987298107776 0.75 L20.066987298107776 0.75 z"/>
<path fill="#4682b4" stroke="#4682b4" d="M32.93301270189222 0.75 L32.93301270189222 0.75 L32.5 0.75 L20.5 0.75 L20.06698729810778 0.75 L20.06698729810778 0.75 L32.066987298107776 0.75 L32.5 0.75 M24.045815516188146 0.75 L26.01527183872938 0.75 L25.884697617593158 0.75 L23.915241295051924 0.75 z"/>
<path fill="#4682b4" stroke="#4682b4" d="M32.93301270189222 0 L32.93301270189222 0 L32.5 0 L32.066987298107776 0 L20.06698729810778 0 L20.06698729810778 0 L20.5 0 L32.5 0 M23.915241295051924 0 L25.826772431636062 0 L25.884697617593158 0 L25.96304215027489 0 L26.011431420460667 0 L26.01527183872938 0 L25.957346652772287 0 L24.045815516188146 0 L24.0197006719609 0 L23.919081713320637 0 z"/>
<path fill="#4682b4" stroke="#4682b4" d="M0.49999999999999994 0.75 L0.49999999999999994 0 L0.06698729810778047 0 L0.06698729810778047 0.75 z"/>
<path fill="#4682b4" stroke="#4682b4" d="M17.999999999999996 0.75 L17.999999999999996 0 L0.49999999999999994 0 L0.49999999999999994 0.75 z"/>
<path fill="#4682b4" stroke="#4682b4" d="M18.433012701892217 0.75 L18.433012701892217 0 L17.999999999999996 0 L17.999999999999996 0.75 z"/>
<path fill="#4682b4" stroke="#4682b4" d="M20.93301270189222 0.75 L20.93301270189222 0 L18.43301270189222 0 L18.43301270189222 0.75 z"/>
<path fill="#4682b4" stroke="#4682b4" d="M20.93301270189222 0.75 L20.93301270189222 0 L20.93301270189222 0 L20.93301270189222 0.75 z"/>
<path fill="#4682b4" stroke="#4682b4" d="M20.499999999999996 0.75 L20.499999999999996 0 L20.933012701892217 0 L20.933012701892217 0.75 z"/>
<path fill="#4682b4" stroke="#4682b4" d="M20.066987298107776 0.75 L20.066987298107776 0 L20.499999999999996 0 L20.499999999999996 0.75 z"/>
<path fill="#4682b4" stroke="#4682b4" d="M0.06698729810778074 0.75 L0.06698729810778074 0 L20.066987298107776 0 L20.066987298107776 0.75 z"/>
<path fill="#4682b4" stroke="#4682b4" d="M0.06698729810778048 0.75 L0.06698729810778048 0 L0.06698729810778076 0 L0.06698729810778076 0.75 z"/>
<path fill="#4682b4" stroke="#4682b4" d="M0.5 0.75 L0.06698729810778048 0.75 L0.06698729810778076 0.75 L20.06698729810778 0.75 L20.5 0.75 L20.93301270189222 0.75 L20.93301270189222 0.75 L18.43301270189222 0.75 L18 0.75 z"/>
<path fill="#4682b4" stroke="#4682b4" d="M0.5 0 L18 0 L18.43301270189222 0 L20.93301270189222 0 L20.93301270189222 0 L20.5 0 L20.06698729810778 0 L0.06698729810778076 0 L0.06698729810778048 0 z"/>
<path fill="#4682b4" stroke="#4682b4" d="M20.06698729810778 0 L20.06698729810778 0 L20.06698729810778 0.75 L20.06698729810778 0.75 z"/>
<path fill="#4682b4" stroke="#4682b4" d="M20.499999999999996 0 L20.066987298107776 0 L20.066987298107776 0.75 L20.499999999999996 0.75 z"/>
<path fill="#4682b4" stroke="#4682b4" d="M20.933012701892217 0 L20.499999999999996 0 L20.499999999999996 0.75 L20.933012701892217 0.75 z"/>
<path fill="#4682b4" stroke="#4682b4" d="M22.315758949303717 0 L20.933012701892217 0 L20.933012701892217 0.75 L32.93301270189221 0.75 L32.93301270189221 0 L23.870528894428244 0 L22.361362281528162 0 z"/>
<path fill="#4682b4" stroke="#4682b4" d="M32.93301270189222 0 L32.93301270189222 0 L32.93301270189222 0.75 L32.93301270189222 0.75 z"/>
<path fill="#4682b4" stroke="#4682b4" d="M24.933012701892217 0 L32.93301270189221 0 L32.93301270189221 0.75 L24.933012701892217 0.75 z"/>
<path fill="#4682b4" stroke="#4682b4" d="M24.499999999999996 0 L24.933012701892217 0 L24.933012701892217 0.75 L24.499999999999996 0.75 z"/>
<path fill="#4682b4" stroke="#4682b4" d="M24.066987298107772 0 L24.499999999999996 0 L24.499999999999996 0.75 L24.066987298107772 0.75 z"/>
<path fill="#4682b4" stroke="#4682b4" d="M20.06698729810778 0 L24.06698729810778 0 L24.06698729810778 0.75 L20.06698729810778 0.75 z"/>
<path fill="#4682b4" stroke="#4682b4" d="M20.5 0.75 L20.06698729810778 0.75 L20.06698729810778 0.75 L24.06698729810778 0.75 L24.5 0.75 L24.93301270189222 0.75 L32.93301270189222 0.75 L32.93301270189222 0.75 L20.93301270189222 0.75 z"/>
<path fill="#4682b4" stroke="#4682b4" d="M22.31575894930372 0 L22.361362281528162 0 L23.870528894428244 0 L32.93301270189222 0 L32.93301270189222 0 L24.93301270189222 0 L24.5 0 L24.06698729810778 0 L20.06698729810778 0 L20.06698729810778 0 L20.5 0 L20.93301270189222 0 z"/>
<path fill="#4682b4" stroke="#4682b4" d="M9.816987298107772 -24 L9.816987298107772 -24.75 L0.06698729810778048 -24.75 L0.06698729810778048 -24 z"/>
<path fill="#4682b4" stroke="#4682b4" d="M10.249999999999998 -24 L10.249999999999998 -24.75 L9.81698729810778 -24.75 L9.81698729810778 -24 z"/>
<path fill="#4682b4" stroke="#4682b4" d="M23.5 -23.999999999999996 L23.5 -24.749999999999996 L10.25 -24.749999999999996 L10.25 -23.999999999999996 z"/>
<path fill="#4682b4" stroke="#4682b4" d="M23.933012701892213 -24 L23.933012701892213 -24.75 L23.499999999999996 -24.75 L23.499999999999996 -24 z"/>
<path fill="#4682b4" stroke="#4682b4" d="M23.93301270189222 -24 L23.93301270189222 -24.75 L23.93301270189222 -24.75 L23.93301270189222 -24 z"/>
<path fill="#4682b4" stroke="#4682b4" d="M18.433012701892217 -24 L18.433012701892217 -24.75 L23.933012701892217 -24.75 L23.933012701892217 -24 z"/>
<path fill="#4682b4" stroke="#4682b4" d="M17.999999999999996 -24 L17.999999999999996 -24.75 L18.433012701892217 -24.75 L18.433012701892217 -24 z"/>
<path fill="#4682b4" stroke="#4682b4" d="M0.5000000000000001 -24 L0.5000000000000001 -24.75 L17.999999999999996 -24.75 L17.999999999999996 -24 z"/>
<path fill="#4682b4" stroke="#4682b4" d="M0.06698729810778074 -24 L0.06698729810778074 -24.75 L0.5 -24.75 L0.5 -24 z"/>
<path fill="#4682b4" stroke="#4682b4" d="M0.06698729810778048 -24 L0.06698729810778048 -24.75 L0.06698729810778076 -24.75 L0.06698729810778076 -24 z"/>
<path fill="#4682b4" stroke="#4682b4" d="M9.816987298107781 -24 L0.06698729810778048 -24 L0.06698729810778076 -24 L0.5000000000000001 -24 L18 -24 L18.43301270189222 -24 L23.93301270189222 -24 L23.93301270189222 -24 L23.5 -24 L10.25 -24 z"/>
<path fill="#4682b4" stroke="#4682b4" d="M9.816987298107781 -24.75 L10.25 -24.75 L23.5 -24.75 L23.93301270189222 -24.75 L23.93301270189222 -24.75 L18.43301270189222 -24.75 L18 -24.75 L0.5000000000000001 -24.75 L0.06698729810778076 -24.75 L0.06698729810778048 -24.75 z"/>
<path fill="#4682b4" stroke="#4682b4" d="M0.06698729810778048 -24.75 L0.06698729810778048 -24.75 L0.06698729810778048 -24 L0.06698729810778048 -24 z"/>
<path fill="#4682b4" stroke="#4682b4" d="M0.49999999999999994 -24.75 L0.06698729810778047 -24.75 L0.06698729810778047 -24 L0.49999999999999994 -24 z"/>
<path fill="#4682b4" stroke="#4682b4" d="M0.9330127018922192 -24.75 L0.5 -24.75 L0.5 -24 L0.9330127018922192 -24 z"/>
<path fill="#4682b4" stroke="#4682b4" d="M20.933012701892217 -24.75 L0.9330127018922192 -24.75 L0.9330127018922192 -24 L20.933012701892217 -24 z"/>
<path fill="#4682b4" stroke="#4682b4" d="M24.93301270189222 -24.75 L20.93301270189222 -24.75 L20.93301270189222 -24 L24.93301270189222 -24 z"/>
<path fill="#4682b4" stroke="#4682b4" d="M24.93301270189222 -24.75 L24.93301270189222 -24.75 L24.93301270189222 -24 L24.93301270189222 -24 z"/>
<path fill="#4682b4" stroke="#4682b4" d="M24.499999999999996 -24.75 L24.933012701892217 -24.75 L24.933012701892217 -24 L24.499999999999996 -24 z"/>
<path fill="#4682b4" stroke="#4682b4" d="M0.5000000000000001 -24.749999999999996 L24.5 -24.749999999999996 L24.5 -23.999999999999996 L0.5000000000000001 -23.999999999999996 z"/>
<path fill="#4682b4" stroke="#4682b4" d="M0.06698729810778074 -24.75 L0.5 -24.75 L0.5 -24 L0.06698729810778074 -24 z"/>
<path fill="#4682b4" stroke="#4682b4" d="M0.06698729810778048 -24.75 L0.06698729810778076 -24.75 L0.06698729810778076 -24 L0.06698729810778048 -24 z"/>
<path fill="#4682b4" stroke="#4682b4" d="M0.5 -24 L0.06698729810778048 -24 L0.06698729810778048 -24 L0.06698729810778076 -24 L0.5000000000000001 -24 L24.5 -24 L24.93301270189222 -24 L24.93301270189222 -24 L20.93301270189222 -24 L0.9330127018922193 -24 z"/>
<path fill="#4682b4" stroke="#4682b4" d="M0.06698729810778048 -24.75 L0.5 -24.75 L0.9330127018922193 -24.75 L20.93301270189222 -24.75 L24.93301270189222 -24.75 L24.93301270189222 -24.75 L24.5 -24.75 L0.5000000000000001 -24.75 L0.06698729810778076 -24.75 L0.06698729810778048 -24.75 z"/>
<path fill="#4682b4" stroke="#4682b4" d="M27.932498472816125 -24 L27.888973732437385 -24 L27.856714218980198 -24 L27.85415394013439 -24 L27.85415394013439 -24.75 L27.931862101883205 -24.75 L27.984728161270613 -24.75 L27.984728161270613 -24 L27.9808877430019 -24 z"/>
<path fill="#4682b4" stroke="#4682b4" d="M29.823610262675626 -24 L29.82489040209853 -24 L29.827450680944338 -24 L29.84102015882712 -24 L29.928069639584603 -24 L29.954184483811847 -24 L29.954184483811847 -24.75 L29.823610262675626 -24.75 z"/>
<path fill="#4682b4" stroke="#4682b4" d="M23.91524129505192 -24 L23.91524129505192 -24.75 L24.045815516188146 -24.75 L24.045815516188146 -24 L24.041975097919433 -24 L23.941356139279165 -24 z"/>
<path fill="#4682b4" stroke="#4682b4" d="M26.01527183872938 -24 L26.01527183872938 -24.75 L25.884697617593154 -24.75 L25.884697617593154 -24 L25.888538035861867 -24 L25.936927306047647 -24 z"/>
<path fill="#4682b4" stroke="#4682b4" d="M26.015271838729376 -24 L24.103740702145238 -24 L24.045815516188146 -24 L24.045815516188146 -24.75 L26.015271838729376 -24.75 z"/>
<path fill="#4682b4" stroke="#4682b4" d="M29.32457963330681 -24.75 L29.954184483811847 -24.75 L29.954184483811847 -24 L28.04265334722771 -24 L27.984728161270613 -24 L27.984728161270613 -24.75 z"/>
<path fill="#4682b4" stroke="#4682b4" d="M25.884697617593154 -24.75 L23.91524129505192 -24.75 L23.91524129505192 -24 L23.973166481009013 -24 L25.884697617593154 -24 z"/>
<path fill="#4682b4" stroke="#4682b4" d="M29.823610262675626 -24.75 L27.85415394013439 -24.75 L27.85415394013439 -24 L27.91207912609148 -24 L29.823610262675626 -24 z"/>
<path fill="#4682b4" stroke="#4682b4" d="M20.06698729810778 -24.75 L20.06698729810778 -24.75 L20.06698729810778 -24 L20.06698729810778 -24 z"/>
<path fill="#4682b4" stroke="#4682b4" d="M20.499999999999996 -24.75 L20.066987298107776 -24.75 L20.066987298107776 -24 L20.499999999999996 -24 z"/>
<path fill="#4682b4" stroke="#4682b4" d="M32.49999999999999 -24.75 L20.499999999999996 -24.75 L20.499999999999996 -24 L32.49999999999999 -24 z"/>
<path fill="#4682b4" stroke="#4682b4" d="M32.93301270189221 -24.75 L32.49999999999999 -24.75 L32.49999999999999 -24 L32.93301270189221 -24 z"/>
<path fill="#4682b4" stroke="#4682b4" d="M32.93301270189222 -24.75 L32.93301270189222 -24.75 L32.93301270189222 -24 L32.93301270189222 -24 z"/>
<path fill="#4682b4" stroke="#4682b4" d="M32.49999999999999 -24.75 L32.93301270189221 -24.75 L32.93301270189221 -24 L32.49999999999999 -24 z"/>
<path fill="#4682b4" stroke="#4682b4" d="M32.066987298107776 -24.75 L32.49999999999999 -24.75 L32.49999999999999 -24 L32.066987298107776 -24 z"/>
<path fill="#4682b4" stroke="#4682b4" d="M20.066987298107776 -24.75 L32.066987298107776 -24.75 L32.066987298107776 -24 L20.066987298107776 -24 z"/>
<path fill="#4682b4" stroke="#4682b4" d="M32.93301270189222 -24 L32.93301270189222 -24 L32.5 -24 L20.5 -24 L20.06698729810778 -24 L20.06698729810778 -24 L32.066987298107776 -24 L32.5 -24 M25.936927306047647 -24 L25.88853803586187 -24 L25.884697617593158 -24 L23.973166481009017 -24 L23.915241295051924 -24 L23.94135613927917 -24 L24.041975097919433 -24 L24.045815516188146 -24 L24.10374070214524 -24 L26.01527183872938 -24 z"/>
<path fill="#4682b4" stroke="#4682b4" d="M32.93301270189222 -24.75 L32.93301270189222 -24.75 L32.5 -24.75 L32.066987298107776 -24.75 L20.06698729810778 -24.75 L20.06698729810778 -24.75 L20.5 -24.75 L32.5 -24.75 M25.884697617593158 -24.75 L26.01527183872938 -24.75 L24.045815516188146 -24.75 L23.915241295051924 -24.75 z"/>
<path fill="#4682b4" stroke="#4682b4" d="M0.49999999999999994 -24 L0.49999999999999994 -24.75 L0.06698729810778047 -24.75 L0.06698729810778047 -24 z"/>
<path fill="#4682b4" stroke="#4682b4" d="M17.999999999999996 -24 L17.999999999999996 -24.75 L0.49999999999999994 -24.75 L0.49999999999999994 -24 z"/>
<path fill="#4682b4" stroke="#4682b4" d="M18.433012701892217 -24 L18.433012701892217 -24.75 L17.999999999999996 -24.75 L17.999999999999996 -24 z"/>
<path fill="#4682b4" stroke="#4682b4" d="M20.93301270189222 -24 L20.93301270189222 -24.75 L18.43301270189222 -24.75 L18.43301270189222 -24 z"/>
<path fill="#4682b4" stroke="#4682b4" d="M20.93301270189222 -24 L20.93301270189222 -24.75 L20.93301270189222 -24.75 L20.93301270189222 -24 z"/>
<path fill="#4682b4" stroke="#4682b4" d="M20.499999999999996 -24 L20.499999999999996 -24.75 L20.933012701892217 -24.75 L20.933012701892217 -24 z"/>
<path fill="#4682b4" stroke="#4682b4" d="M20.066987298107776 -24 L20.066987298107776 -24.75 L20.499999999999996 -24.75 L20.499999999999996 -24 z"/>
<path fill="#4682b4" stroke="#4682b4" d="M0.06698729810778074 -24 L0.06698729810778074 -24.75 L20.066987298107776 -24.75 L20.066987298107776 -24 z"/>
<path fill="#4682b4" stroke="#4682b4" d="M0.06698729810778048 -24 L0.06698729810778048 -24.75 L0.06698729810778076 -24.75 L0.06698729810778076 -24 z"/>
<path fill="#4682b4" stroke="#4682b4" d="M0.5 -24 L0.06698729810778048 -24 L0.06698729810778076 -24 L20.06698729810778 -24 L20.5 -24 L20.93301270189222 -24 L20.93301270189222 -24 L18.43301270189222 -24 L18 -24 z"/>
<path fill="#4682b4" stroke="#4682b4" d="M0.5 -24.75 L18 -24.75 L18.43301270189222 -24.75 L20.93301270189222 -24.75 L20.93301270189222 -24.75 L20.5 -24.75 L20.06698729810778 -24.75 L0.06698729810778076 -24.75 L0.06698729810778048 -24.75 z"/>
<path fill="#4682b4" stroke="#4682b4" d="M20.06698729810778 -24.75 L20.06698729810778 -24.75 L20.06698729810778 -24 L20.06698729810778 -24 z"/>
<path fill="#4682b4" stroke="#4682b4" d="M20.499999999999996 -24.75 L20.066987298107776 -24.75 L20.066987298107776 -24 L20.499999999999996 -24 z"/>
<path fill="#4682b4" stroke="#4682b4" d="M20.933012701892217 -24.75 L20.499999999999996 -24.75 L20.499999999999996 -24 L20.933012701892217 -24 z"/>
<path fill="#4682b4" stroke="#4682b4" d="M23.870528894428244 -24 L32.93301270189221 -24 L32.93301270189221 -24.75 L20.933012701892217 -24.75 L20.933012701892217 -24 L22.315758949303717 -24 L23.611044709368127 -24 z"/>
<path fill="#4682b4" stroke="#4682b4" d="M32.93301270189222 -24.75 L32.93301270189222 -24.75 L32.93301270189222 -24 L32.93301270189222 -24 z"/>
<path fill="#4682b4" stroke="#4682b4" d="M24.933012701892217 -24.75 L32.93301270189221 -24.75 L32.93301270189221 -24 L24.933012701892217 -24 z"/>
<path fill="#4682b4" stroke="#4682b4" d="M24.499999999999996 -24.75 L24.933012701892217 -24.75 L24.933012701892217 -24 L24.499999999999996 -24 z"/>
<path fill="#4682b4" stroke="#4682b4" d="M24.066987298107772 -24.75 L24.499999999999996 -24.75 L24.499999999999996 -24 L24.066987298107772 -24 z"/>
<path fill="#4682b4" stroke="#4682b4" d="M20.06698729810778 -24.75 L24.06698729810778 -24.75 L24.06698729810778 -24 L20.06698729810778 -24 z"/>
<path fill="#4682b4" stroke="#4682b4" d="M23.61104470936813 -24 L22.31575894930372 -24 L20.93301270189222 -24 L20.5 -24 L20.06698729810778 -24 L20.06698729810778 -24 L24.06698729810778 -24 L24.5 -24 L24.93301270189222 -24 L32.93301270189222 -24 L32.93301270189222 -24 L23.870528894428244 -24 z"/>
<path fill="#4682b4" stroke="#4682b4" d="M20.06698729810778 -24.75 L20.5 -24.75 L20.93301270189222 -24.75 L32.93301270189222 -24.75 L32.93301270189222 -24.75 L24.93301270189222 -24.75 L24.5 -24.75 L24.06698729810778 -24.75 L20.06698729810778 -24.75 z"/>
<path fill="#b0e0e6" stroke="#b0e0e6" d="M22.076359193646912 0 L21.945784972510687 0 L31.79306658521686 0 L31.923640806353085 0 z"/>
<path fill="#b0e0e6" stroke="#b0e0e6" d="M22.076359193646912 -24 L21.945784972510687 -24 L21.945784972510687 0 L22.076359193646912 0 z"/>
<path fill="#b0e0e6" stroke="#b0e0e6" d="M31.923640806353085 -24 L31.79306658521686 -24 L21.945784972510687 -24 L22.076359193646912 -24 z"/>
<path fill="#b0e0e6" stroke="#b0e0e6" d="M31.92364080635308 0 L31.79306658521686 0 L31.79306658521686 -24 L31.92364080635308 -24 z"/>
<path fill="#b0e0e6" stroke="#b0e0e6" d="M22.076359193646912 0 L31.92364080635308 0 L31.92364080635308 -24 L22.076359193646912 -24 z"/>
<path fill="#b0e0e6" stroke="#b0e0e6" d="M21.945784972510687 0 L21.945784972510687 -24 L31.793066585216856 -24 L31.793066585216856 0 z"/>
<path fill="#b0e0e6" stroke="#b0e0e6" d="M24.045815516188146 0.75 L23.915241295051924 0.75 L25.884697617593158 0.75 L26.01527183872938 0.75 z"/>
<path fill="#b0e0e6" stroke="#b0e0e6" d="M24.045815516188146 -24.75 L23.91524129505192 -24.75 L23.91524129505192 0.75 L24.045815516188146 0.75 z"/>
<path fill="#b0e0e6" stroke="#b0e0e6" d="M26.01527183872938 -24.75 L25.884697617593158 -24.75 L23.915241295051924 -24.75 L24.045815516188146 -24.75 z"/>
<path fill="#b0e0e6" stroke="#b0e0e6" d="M26.01527183872938 0.75 L25.884697617593154 0.75 L25.884697617593154 -24.75 L26.01527183872938 -24.75 z"/>
<path fill="#b0e0e6" stroke="#b0e0e6" d="M24.045815516188146 0.75 L26.01527183872938 0.75 L26.01527183872938 -24.75 L24.045815516188146 -24.75 z"/>
<path fill="#b0e0e6" stroke="#b0e0e6" d="M23.91524129505192 0.75 L23.91524129505192 -24.75 L25.884697617593154 -24.75 L25.884697617593154 0.75 z"/>
<path fill="#b0e0e6" stroke="#b0e0e6" d="M27.984728161270617 0.75 L27.854153940134392 0.75 L29.823610262675626 0.75 L29.95418448381185 0.75 z"/>
<path fill="#b0e0e6" stroke="#b0e0e6" d="M27.984728161270613 -24.75 L27.85415394013439 -24.75 L27.85415394013439 0.75 L27.984728161270613 0.75 z"/>
<path fill="#b0e0e6" stroke="#b0e0e6" d="M29.95418448381185 -24.75 L29.823610262675626 -24.75 L27.854153940134392 -24.75 L27.984728161270617 -24.75 z"/>
<path fill="#b0e0e6" stroke="#b0e0e6" d="M29.954184483811847 0.75 L29.823610262675626 0.75 L29.823610262675626 -24.75 L29.954184483811847 -24.75 z"/>
<path fill="#b0e0e6" stroke="#b0e0e6" d="M27.984728161270613 0.75 L29.954184483811844 0.75 L29.954184483811844 -24.75 L27.984728161270613 -24.75 z"/>
<path fill="#b0e0e6" stroke="#b0e0e6" d="M27.85415394013439 0.75 L27.85415394013439 -24.75 L29.82361026267562 -24.75 L29.82361026267562 0.75 z"/>
</svg>